<?xml version="1.0" encoding="UTF-8"?>
<svg width="32px" height="32px" viewBox="0 0 32 32" version="1.1" xmlns="http://www.w3.org/2000/svg" xmlns:xlink="http://www.w3.org/1999/xlink">
    <title>svg-favicon</title>
    <defs>
        <linearGradient x1="0%" y1="0%" x2="100%" y2="100%" id="linearGradient-1">
            <stop stop-color="#F44243" offset="0%"></stop>
            <stop stop-color="#B21819" offset="100%"></stop>
        </linearGradient>
    </defs>
    <g id="favicon" stroke="none" stroke-width="1" fill="none" fill-rule="evenodd">
        <path d="M31,0 C31.5522847,-1.01453063e-16 32,0.44771525 32,1 L32,31 C32,31.5522847 31.5522847,32 31,32 L1,32 C0.44771525,32 6.76353751e-17,31.5522847 0,31 L0,1 C-6.76353751e-17,0.44771525 0.44771525,1.01453063e-16 1,0 L31,0 Z M16.5,9 C12.3578644,9 9,12.3578644 9,16.5 C9,20.6421356 12.3578644,24 16.5,24 C20.6421356,24 24,20.6421356 24,16.5 C24,12.3578644 20.6421356,9 16.5,9 Z" id="MagMag" fill="url(#linearGradient-1)"></path>
    </g>
</svg>