<?xml version="1.0" encoding="UTF-8"?>
<svg width="64px" height="64px" viewBox="0 0 64 64" version="1.1" xmlns="http://www.w3.org/2000/svg" xmlns:xlink="http://www.w3.org/1999/xlink">
    <title>favicon-svg</title>
    <defs>
        <linearGradient x1="0%" y1="0%" x2="100%" y2="100%" id="linearGradient-1">
            <stop stop-color="#F44243" offset="0%"></stop>
            <stop stop-color="#B21819" offset="100%"></stop>
        </linearGradient>
    </defs>
    <g id="favicon" stroke="none" stroke-width="1" fill="none" fill-rule="evenodd">
        <path d="M32,0 C49.673112,-3.24649801e-15 64,14.326888 64,32 C64,49.673112 49.673112,64 32,64 C14.326888,64 2.164332e-15,49.673112 0,32 C-2.164332e-15,14.326888 14.326888,3.24649801e-15 32,0 Z M22.21875,15.5703125 L15.5390625,15.5703125 L15.5390625,50 L19.9921875,50 L19.9921875,29.6796875 C19.9921875,28.8671875 19.9726562,27.5976562 19.9335938,25.8710938 C19.8973214,24.2678571 19.8778898,23.0452208 19.8752989,22.2031848 L19.875,20.9609375 L29.765625,50 L34.3828125,50 L44.203125,20.9609375 C44.203125,22.8203125 44.1875,24.5625 44.15625,26.1875 C44.1272321,27.6964286 44.1116869,28.8079161 44.1096142,29.5219627 L44.109375,50 L48.5390625,50 L48.5390625,15.5703125 L41.9296875,15.5703125 L32.109375,44.6796875 L22.21875,15.5703125 Z" id="Combined-Shape" fill="url(#linearGradient-1)"></path>
    </g>
</svg>