<?xml version="1.0" encoding="UTF-8"?>
<svg width="2048px" height="1365px" viewBox="0 0 2048 1365" version="1.1" xmlns="http://www.w3.org/2000/svg" xmlns:xlink="http://www.w3.org/1999/xlink">
    <title>blackground</title>
    <g id="Page-1" stroke="none" stroke-width="1" fill="none" fill-rule="evenodd" fill-opacity="0.48">
        <g id="blackground" fill="#000000">
            <path d="M2048,0 L0,0 L0,1364.9984 L2048,1364.9984 L2048,0 Z M488.4896,878.3968 L502.56192,925.18976 L522.5216,972.53312 L529.78304,989.31296 L520.38272,1018.7856 L516.19968,1041.15008 L518.216,1070.43904 L520.8352,1111.62944 L545.10368,1123.13952 L564.59648,1129.45312 L577.0128,1115.72992 L615.89728,1100.2064 L645.5056,1092.27616 L649.4128,1080.44096 L652.53856,1053.94976 L682.46528,1023.17344 L720.74304,1029.47904 L749.87328,1026.83424 L736.3616,1043.34496 L717.22592,1057.03296 L718.08256,1072.68192 L727.45888,1089.81728 L768.75776,1103.47168 L786.36928,1104.4912 L826.07328,1041.26752 L848.54432,1035.13248 L881.37504,1036.18816 L892.72384,1020.4528 L898.488,1003.18656 L895.74048,986.85952 L891.3152,972.13248 L857.35104,937.22304 L828.06112,914.42016 L780.34912,899.26528 L762.46272,884.89152 L763.28992,865.5584 L763.51744,846.5936 L793.13344,763.41024 L809.89792,769.35328 L828.32896,726.9952 L798.66272,693.968 L769.95552,666.88352 L750.13568,668.07616 L761.52256,653.21856 L765.53728,636.26016 L773.06112,615.27008 L778.40672,597.51968 L777.16224,572.25088 L772.34528,560.10912 L767.59872,553.7824 L758.69728,536.0512 L740.53344,530.176 L718.53632,529.37856 L708.65152,527.272 L697.40192,534.58432 L676.2576,547.5536 L664.90784,570.33248 L658.59552,591.6672 L657.90304,608.79648 L657.71264,624.03008 L662.78016,634.60704 L667.41952,632.352 L663.34432,643.73728 L653.44,649.54208 L646.03872,655.47008 L611.89056,673.92896 L566.58592,700.5488 L547.20768,720.2992 L509.45408,809.23968 L490.13312,860.20384 L488.4896,878.3968 L488.4896,878.3968 Z" id="Shape"></path>
        </g>
    </g>
</svg>