<?xml version="1.0" encoding="UTF-8"?>
<svg width="181px" height="15px" viewBox="0 0 181 15" version="1.1" xmlns="http://www.w3.org/2000/svg" xmlns:xlink="http://www.w3.org/1999/xlink">
    <title>edicao_1.0_junho_2020</title>
    <g id="Landscape" stroke="none" stroke-width="1" fill="none" fill-rule="evenodd">
        <g id="375-light" transform="translate(-23.000000, -493.000000)" fill="#000000" fill-rule="nonzero">
            <g id="Header-+-Player" transform="translate(22.000000, 354.000000)">
                <path d="M4.61425781,151.164062 C6.36425781,151.164062 7.69726562,150.213867 7.85449219,148.880859 L6.09082031,148.880859 C5.95410156,149.373047 5.359375,149.714844 4.60742188,149.714844 C3.62988281,149.714844 2.99414062,149.072266 2.99414062,148.087891 L2.99414062,147.677734 L7.85449219,147.677734 L7.85449219,146.638672 C7.85449219,144.615234 6.57617188,143.302734 4.58007812,143.302734 C2.52929688,143.302734 1.16210938,144.608398 1.16210938,146.583984 L1.16210938,147.793945 C1.16210938,149.933594 2.41992188,151.164062 4.61425781,151.164062 Z M6.04980469,146.481445 L2.99414062,146.481445 C2.99414062,145.401367 3.57519531,144.751953 4.54589844,144.751953 C5.48925781,144.751953 6.04980469,145.401367 6.04980469,146.481445 Z M12.2773438,151.116211 C13.3847656,151.116211 14.1298828,150.617188 14.3896484,149.701172 L14.5332031,149.701172 L14.5332031,151 L16.4609375,151 L16.4609375,140.588867 L14.5058594,140.588867 L14.5058594,144.745117 L14.3691406,144.745117 C14.1162109,143.842773 13.3642578,143.336914 12.2773438,143.336914 C10.5546875,143.336914 9.52929688,144.526367 9.52929688,146.577148 L9.52929688,147.875977 C9.52929688,149.926758 10.5546875,151.116211 12.2773438,151.116211 Z M13.0019531,149.496094 C12.03125,149.496094 11.4365234,148.860352 11.4365234,147.821289 L11.4365234,146.577148 C11.4365234,145.538086 12.03125,144.90918 13.0019531,144.90918 C13.9658203,144.90918 14.5537109,145.538086 14.5537109,146.577148 L14.5537109,147.821289 C14.5537109,148.860352 13.9658203,149.496094 13.0019531,149.496094 Z M21.875,141.921875 C22.640625,141.921875 23.1601562,141.450195 23.1601562,140.739258 C23.1601562,140.02832 22.640625,139.556641 21.875,139.556641 C21.109375,139.556641 20.5966797,140.02832 20.5966797,140.739258 C20.5966797,141.450195 21.109375,141.921875 21.875,141.921875 Z M25.0947266,151 L25.0947266,149.509766 L22.8183594,149.509766 L22.8183594,143.459961 L18.703125,143.459961 L18.703125,144.957031 L21,144.957031 L21,149.509766 L18.5800781,149.509766 L18.5800781,151 L25.0947266,151 Z M30.5703125,151.164062 C32.5185547,151.164062 33.6669922,150.207031 33.8310547,148.40918 L31.9990234,148.40918 C31.8691406,149.21582 31.3769531,149.605469 30.5566406,149.605469 C29.5517578,149.605469 28.9980469,148.853516 28.9980469,147.472656 L28.9980469,146.966797 C28.9980469,145.585938 29.5517578,144.833984 30.5566406,144.833984 C31.3701172,144.833984 31.8759766,145.244141 31.9990234,146.091797 L33.8310547,146.091797 C33.6533203,144.246094 32.5185547,143.275391 30.5703125,143.275391 C28.3486328,143.275391 27.1181641,144.533203 27.1181641,146.823242 L27.1181641,147.616211 C27.1181641,149.90625 28.3486328,151.164062 30.5703125,151.164062 Z M38.0556641,151.123047 C39.0400391,151.123047 39.8330078,150.706055 40.2021484,149.995117 L40.3662109,149.995117 L40.3662109,151 L42.1435547,151 L42.1435547,145.886719 C42.1435547,144.239258 41.0566406,143.316406 39.1220703,143.316406 C37.3310547,143.316406 36.09375,144.198242 35.9570312,145.56543 L37.7753906,145.56543 C37.9326172,145.09375 38.4179688,144.806641 39.0673828,144.806641 C39.8398438,144.806641 40.2910156,145.189453 40.2910156,145.845703 L40.2910156,146.447266 L38.5273438,146.556641 C36.6679688,146.686523 35.6767578,147.486328 35.6767578,148.84668 C35.6767578,150.207031 36.6337891,151.123047 38.0556641,151.123047 Z M38.6982422,149.625977 C37.9736328,149.625977 37.5224609,149.270508 37.5224609,148.709961 C37.5224609,148.128906 37.9667969,147.793945 38.8417969,147.739258 L40.2910156,147.650391 L40.2910156,148.197266 C40.2910156,149.038086 39.6279297,149.625977 38.6982422,149.625977 Z M47.7285156,151.164062 C49.8544922,151.164062 51.1943359,149.87207 51.1943359,147.814453 L51.1943359,146.652344 C51.1943359,144.594727 49.8544922,143.302734 47.7285156,143.302734 C45.6025391,143.302734 44.2626953,144.594727 44.2626953,146.652344 L44.2626953,147.814453 C44.2626953,149.87207 45.6025391,151.164062 47.7285156,151.164062 Z M47.7285156,149.632812 C46.7236328,149.632812 46.1015625,148.901367 46.1015625,147.739258 L46.1015625,146.727539 C46.1015625,145.558594 46.7236328,144.833984 47.7285156,144.833984 C48.7333984,144.833984 49.3554688,145.558594 49.3554688,146.727539 L49.3554688,147.739258 C49.3554688,148.901367 48.7333984,149.632812 47.7285156,149.632812 Z M59.9306641,153.419922 L59.9306641,151.751953 L52.8349609,151.751953 L52.8349609,153.419922 L59.9306641,153.419922 Z M68.8652344,151 L68.8652344,149.379883 L66.3427734,149.379883 L66.3427734,141.135742 L64.4423828,141.135742 L61.7763672,142.919922 L61.7763672,144.751953 L64.3193359,143.063477 L64.4423828,143.063477 L64.4423828,149.379883 L61.7832031,149.379883 L61.7832031,151 L68.8652344,151 Z M73.6914062,151.129883 C74.5185547,151.129883 75.1953125,150.432617 75.1953125,149.591797 C75.1953125,148.744141 74.5185547,148.046875 73.6914062,148.046875 C72.8642578,148.046875 72.1875,148.744141 72.1875,149.591797 C72.1875,150.432617 72.8642578,151.129883 73.6914062,151.129883 Z M82.3457031,151.205078 C84.7177734,151.205078 86.0576172,149.352539 86.0576172,146.064453 C86.0576172,142.776367 84.7177734,140.923828 82.3457031,140.923828 C79.9804688,140.923828 78.640625,142.776367 78.640625,146.064453 C78.640625,149.352539 79.9804688,151.205078 82.3457031,151.205078 Z M80.5410156,146.317383 L80.5410156,146.064453 L80.5410156,146.064453 C80.5410156,143.774414 81.1767578,142.530273 82.3457031,142.530273 C83.1181641,142.530273 83.6513672,143.063477 83.9316406,144.075195 L80.5410156,146.317383 Z M82.3457031,149.598633 C81.5800781,149.598633 81.046875,149.072266 80.7666016,148.067383 L84.1572266,145.825195 L84.1572266,146.064453 L84.1572266,146.064453 C84.1572266,148.361328 83.5214844,149.598633 82.3457031,149.598633 Z M94.5478516,153.419922 L94.5478516,151.751953 L87.4521484,151.751953 L87.4521484,153.419922 L94.5478516,153.419922 Z M100.501953,141.921875 C101.274414,141.921875 101.787109,141.450195 101.787109,140.739258 C101.787109,140.02832 101.274414,139.556641 100.501953,139.556641 C99.7363281,139.556641 99.2236328,140.02832 99.2236328,140.739258 C99.2236328,141.450195 99.7363281,141.921875 100.501953,141.921875 Z M98.4580078,153.460938 C100.672852,153.460938 101.513672,152.71582 101.513672,150.699219 L101.513672,143.459961 L96.5917969,143.459961 L96.5917969,144.957031 L99.6953125,144.957031 L99.6953125,150.712891 C99.6953125,151.492188 99.3330078,151.813477 98.3828125,151.813477 L98.2274195,151.813058 C97.7855748,151.811384 96.6513672,151.804688 96.5166016,151.792969 L96.5166016,153.44043 C96.7285156,153.454102 98.2324219,153.460938 98.4580078,153.460938 Z M107.467773,151.164062 C108.554688,151.164062 109.368164,150.644531 109.737305,149.735352 L109.853516,149.735352 L109.853516,151 L111.665039,151 L111.665039,143.459961 L109.798828,143.459961 L109.798828,147.821289 C109.798828,148.860352 109.176758,149.523438 108.219727,149.523438 C107.269531,149.523438 106.825195,148.99707 106.825195,147.889648 L106.825195,143.459961 L104.952148,143.459961 L104.952148,148.34082 C104.952148,150.179688 105.827148,151.164062 107.467773,151.164062 Z M115.472656,151 L115.472656,146.645508 C115.472656,145.599609 116.094727,144.936523 117.051758,144.936523 C118.001953,144.936523 118.446289,145.462891 118.446289,146.570312 L118.446289,151 L120.319336,151 L120.319336,146.125977 C120.319336,144.287109 119.444336,143.302734 117.803711,143.302734 C116.716797,143.302734 115.90332,143.81543 115.53418,144.724609 L115.417969,144.724609 L115.417969,143.459961 L113.606445,143.459961 L113.606445,151 L115.472656,151 Z M124.099609,151 L124.099609,146.666016 C124.099609,145.626953 124.735352,144.957031 125.719727,144.957031 C126.669922,144.957031 127.134766,145.49707 127.134766,146.597656 L127.134766,151 L129.007812,151 L129.007812,146.139648 C129.007812,144.321289 128.105469,143.323242 126.47168,143.323242 C125.371094,143.323242 124.530273,143.842773 124.167969,144.745117 L124.058594,144.745117 L124.058594,140.588867 L122.233398,140.588867 L122.233398,151 L124.099609,151 Z M134.271484,151.164062 C136.397461,151.164062 137.737305,149.87207 137.737305,147.814453 L137.737305,146.652344 C137.737305,144.594727 136.397461,143.302734 134.271484,143.302734 C132.145508,143.302734 130.805664,144.594727 130.805664,146.652344 L130.805664,147.814453 C130.805664,149.87207 132.145508,151.164062 134.271484,151.164062 Z M134.271484,149.632812 C133.266602,149.632812 132.644531,148.901367 132.644531,147.739258 L132.644531,146.727539 C132.644531,145.558594 133.266602,144.833984 134.271484,144.833984 C135.276367,144.833984 135.898438,145.558594 135.898438,146.727539 L135.898438,147.739258 C135.898438,148.901367 135.276367,149.632812 134.271484,149.632812 Z M146.473633,153.419922 L146.473633,151.751953 L139.37793,151.751953 L139.37793,153.419922 L146.473633,153.419922 Z M155.100586,151 L155.100586,149.366211 L150.787109,149.366211 L150.787109,149.243164 L152.714844,147.404297 C154.382812,145.804688 154.950195,144.881836 154.950195,143.801758 C154.950195,142.092773 153.576172,140.9375 151.539062,140.9375 C149.467773,140.9375 148.039062,142.222656 148.039062,144.109375 L148.039062,144.150391 L149.84375,144.150391 L149.84375,144.102539 C149.84375,143.15918 150.5,142.516602 151.477539,142.516602 C152.43457,142.516602 153.056641,143.077148 153.056641,143.931641 C153.056641,144.594727 152.708008,145.114258 151.361328,146.460938 L148.148438,149.639648 L148.148438,151 L155.100586,151 Z M160.234375,151.205078 C162.606445,151.205078 163.946289,149.352539 163.946289,146.064453 C163.946289,142.776367 162.606445,140.923828 160.234375,140.923828 C157.869141,140.923828 156.529297,142.776367 156.529297,146.064453 C156.529297,149.352539 157.869141,151.205078 160.234375,151.205078 Z M158.429688,146.317383 L158.429688,146.064453 L158.429688,146.064453 C158.429688,143.774414 159.06543,142.530273 160.234375,142.530273 C161.006836,142.530273 161.540039,143.063477 161.820312,144.075195 L158.429688,146.317383 Z M160.234375,149.598633 C159.46875,149.598633 158.935547,149.072266 158.655273,148.067383 L162.045898,145.825195 L162.045898,146.064453 L162.045898,146.064453 C162.045898,148.361328 161.410156,149.598633 160.234375,149.598633 Z M172.40918,151 L172.40918,149.366211 L168.095703,149.366211 L168.095703,149.243164 L170.023438,147.404297 C171.691406,145.804688 172.258789,144.881836 172.258789,143.801758 C172.258789,142.092773 170.884766,140.9375 168.847656,140.9375 C166.776367,140.9375 165.347656,142.222656 165.347656,144.109375 L165.347656,144.150391 L167.152344,144.150391 L167.152344,144.102539 C167.152344,143.15918 167.808594,142.516602 168.786133,142.516602 C169.743164,142.516602 170.365234,143.077148 170.365234,143.931641 C170.365234,144.594727 170.016602,145.114258 168.669922,146.460938 L165.457031,149.639648 L165.457031,151 L172.40918,151 Z M177.542969,151.205078 C179.915039,151.205078 181.254883,149.352539 181.254883,146.064453 C181.254883,142.776367 179.915039,140.923828 177.542969,140.923828 C175.177734,140.923828 173.837891,142.776367 173.837891,146.064453 C173.837891,149.352539 175.177734,151.205078 177.542969,151.205078 Z M175.738281,146.317383 L175.738281,146.064453 L175.738281,146.064453 C175.738281,143.774414 176.374023,142.530273 177.542969,142.530273 C178.31543,142.530273 178.848633,143.063477 179.128906,144.075195 L175.738281,146.317383 Z M177.542969,149.598633 C176.777344,149.598633 176.244141,149.072266 175.963867,148.067383 L179.354492,145.825195 L179.354492,146.064453 L179.354492,146.064453 C179.354492,148.361328 178.71875,149.598633 177.542969,149.598633 Z" id="edicao_1.0_junho_2020"></path>
            </g>
        </g>
    </g>
</svg>