<?xml version="1.0" encoding="UTF-8"?>
<!DOCTYPE svg  PUBLIC '-//W3C//DTD SVG 1.1//EN'  'http://www.w3.org/Graphics/SVG/1.1/DTD/svg11.dtd'>
<svg clip-rule="evenodd" fill-rule="evenodd" stroke-linejoin="round" stroke-miterlimit="2" version="1.1" viewBox="0 0 603 400" xml:space="preserve" xmlns="http://www.w3.org/2000/svg"><path d="m36.295 127.87l-6.345 97.912 38.481 13.859 14.469-21.859 18.793 27.369 24.329-24.065 6.612 17.946 30.716-3.57 32.445 11.495 13.921-15.093 10.745-0.516 10.919 9.875 15.499 1.101-9.397 44.209 3.597 70.298 28.453 4.401 14.581-0.767 9.101-15.086 16.099 13.936 13.219-3.136 15.504-16.873 9.242 7.603 24.893-8.451 6.91 7.182 30.611 0.692 10.649-14.406 11.667-1.997 14.291 10.348 21.292-6.835 9.99-10.008 16.409 24.76 24.164-1.855 22.38-18.299 24.537-81.952-22.768-32.597-9.85-13.449-1.833-30.482-42.908 5.838-26.842 11.882-10.309 45.444-27.949-41.299-33.978 12.517-6.764 63.16-19.555-64.812-31.571 1.759 33.553-64.302-30.891-23.387-6.622-40.486-34.971-0.275-37.389 16.05-12.15 37.24-17.443-48.276-28.625 0.589-26.632 88.63-14.052-67.425-25.308-8.373-27.668 47.543-26.84-46.053-27.466-0.425-11.945 32.771z"/><path d="m170.43 216.92l12.131-21.746 25.875-95.612 8.616-0.303 27.371 95.637 13.016 19.739-6.856 9.676-15.849 3.203-9.95-15.013-23.105 0.46-10.24 16.419-16.906-3.888-4.103-8.572zm145.58-129.51l-46.421 12.656-18.635 64.909 33.972 63.687 18.073-0.819 36.057-77.635-6.947-14.275-10.723-5.771-26.83 7.391 1.34 11.796 13.383 1.707-13.141 17.328-3.224 35.373-18.481-41.456 12.355-51.249 20.963 7.062 12.128-3.43-4.812-11.765 0.943-15.509zm-272.39 132.07l16.647-105.78 6.641 0.302 36.623 65.866 35.086-65.377 7.233-0.363 17.016 106.26-22.781 1.319-7.67-47.562-26.294 48.594-5.618-0.029-26.393-48.392-7.763 47.585-22.727-2.42zm169.26-74.787l-8.036 46.117 18.302-0.404-10.266-45.713z" fill="#fff"/><path d="m381.26 323.76l9.671-22.946 16.055-87.197 8.53-1.246 36.874 81.381 15.103 18.191-5.754 10.37-15.401 4.922-11.537-13.83-22.915 2.992-8.377 17.444-17.231-2.011-5.018-8.07zm134.8-135.72l-44.752 17.672-11.402 66.563 40.754 59.575 17.874-2.796 27.322-81.123-8.471-13.427-11.292-4.56-25.857 10.291 2.626 11.577 13.49 0.229-11.16 18.665 0.675 35.513-22.917-39.178 6.658-52.296 21.612 4.72 11.677-4.74-6.073-11.166-0.764-15.519zm-260.56 152.18l4.941-106.97 6.634-0.429 43.629 61.451 27.701-68.831 7.149-1.155 28.571 103.75-22.498 3.811-12.843-46.433-20.803 51.184-5.588 0.588-31.543-45.204-2.495 48.15-22.855 0.088zm160.04-92.906l-2.928 46.72 18.147-2.41-15.219-44.31z" fill="#fff"/></svg>
