<?xml version="1.0" encoding="UTF-8"?>
<svg width="440px" height="320px" viewBox="0 0 440 320" version="1.1" xmlns="http://www.w3.org/2000/svg" xmlns:xlink="http://www.w3.org/1999/xlink">
    <!-- Generator: Sketch 64 (93537) - https://sketch.com -->
    <title>Artboard</title>
    <desc>Created with Sketch.</desc>
    <g id="Artboard" stroke="none" stroke-width="1" fill="none" fill-rule="evenodd">
        <path d="M264.78177,160.195317 L268.177578,161.101948 L275.670247,180.346808 L274.163379,199.123999 L271.393577,206.216137 L268.834978,213.879346 L270.544435,218.096342 L268.834978,240.852823 L249.725548,243 L239.916495,229.997777 L246.993393,219.790431 L255.040582,218.096342 L255.040582,234.990677 L263.289606,226.017205 L261.757114,214.954196 L261.757114,209.685171 L263.289606,206.216137 L261.757114,204.318077 L263.289606,172.339833 L258.491018,164.774861 L258.491018,162.402779 L264.78177,160.195317 Z M383.681625,154.960938 L388.402405,162.819466 L389.193474,177.951739 L390.045789,201.889269 L388.503825,216.536703 L384.867707,219.043103 L382.810383,215.939251 L382.765767,192.621819 L381.529855,175.40105 L376.191967,187.58511 L377.02224,218.219825 L370.487262,220.396588 L364.544631,197.456811 L363.712196,160.228554 L368.411805,160.721716 L370.341305,178.299529 L376.91689,159.320212 L383.681625,154.960938 Z M306.155145,190.336282 L306.476154,192.043715 C309.650582,209.232216 309.543578,218.286344 306.155145,219.206096 C302.656219,220.155841 299.99334,217.926856 298.166508,212.519141 L298.213747,210.825652 C298.918605,183.420208 296.354592,168.503915 290.521708,166.076772 C284.569786,163.600095 281.90054,167.502348 282.513969,177.783532 L279.602883,177.783532 C275.781264,169.600471 278.248077,163.118865 287.00332,158.338716 C295.758564,153.558567 302.142505,164.224422 306.155145,190.336282 Z M159.71917,158.338716 L159.162686,177.178996 L161.681278,172.645699 L164.603537,170.573005 L170.121878,168.126076 L177.456719,169.610067 L180.514855,173.289098 L180.514855,180.808729 L187.568932,169.610067 L193.99336,168.126076 L198.626157,171.260665 L203.880673,190.620198 L210.184722,212.823208 L208.44286,216.676763 L203.194079,219.418921 L200.42716,217.480651 L199.690828,210.57635 L195.96484,195.301031 L191.376735,179.279038 L187.568932,186.36326 L185.455088,198.18337 L185.455088,206.921494 L184.408437,216.676763 L180.514855,216.676763 L177.927424,214.238829 L176.270588,197.385959 L171.61977,177.178996 L170.121878,175.870609 L163.849906,187.5986 L162.198837,203.21469 L163.288737,216.100654 L159.162686,217.480651 L153.399622,211.989452 L152.86152,193.710527 L151.326989,167.429273 L153.399622,159.133968 L159.71917,158.338716 Z M236.736984,190.336282 L236.953316,191.480337 C240.234359,209.034426 240.162248,218.276346 236.736984,219.206096 C233.238058,220.155841 230.575179,217.926856 228.748347,212.519141 L228.795586,210.825652 C229.500444,183.420208 226.936431,168.503915 221.103547,166.076772 C215.151625,163.600095 212.482379,167.502348 213.095808,177.783532 L210.184722,177.783532 C206.363103,169.600471 208.829916,163.118865 217.585159,158.338716 C226.340403,153.558567 232.724344,164.224422 236.736984,190.336282 Z M222.828141,183.392759 L226.447086,218.630348 L221.734277,218.630348 L213.756812,198.978982 L215.87354,186.264303 L220.164662,183.392759 L222.828141,183.392759 Z M292.246302,183.392759 L295.865247,218.630348 L291.152438,218.630348 L283.174973,198.978982 L285.291701,186.264303 L289.582823,183.392759 L292.246302,183.392759 Z M336.01533,157.631019 L336.540588,164.078451 L344.103371,167.283548 L329.075175,202.631361 L342.424452,193.115675 L348.956823,195.884085 L319.731421,217.990087 L312.639006,206.254754 L327.374044,168.994044 L316.691026,172.858899 L309.495472,165.75236 L336.01533,157.631019 Z M406.325355,152.198822 L414.114939,153.016237 L418.215555,166.439609 L420,179.994827 L416.295103,186.390212 L408.740352,186.390212 L405.511486,179.994827 L409.945156,177.987549 L410.513111,172.592425 L409.015211,165.474155 L402.901342,184.724244 L408.740352,204.070569 L416.295103,201.204443 L419.077237,207.3785 L405.742744,217.907138 L398.524372,207.180608 L393.339398,176.896359 L399.007918,167.185891 L406.325355,152.198822 Z M354.796266,167.957065 L360.652438,172.804418 L358.993118,188.59179 L360.269566,214.866935 L353.272199,214.131482 L351.31918,201.039327 L350.284537,183.68908 L351.529343,171.845542 L354.796266,167.957065 Z M248.981762,161.781038 L255.135898,165.201275 L258.491018,183.853717 L255.135898,197.418321 L257.87002,208.896353 L243.847646,203.255712 L243.847646,195.200995 L242.018171,189.864529 L241.538456,170.237992 L243.270619,169.23655 L243.847646,163.39152 L248.981762,161.781038 Z M133.304089,79.7070144 L136.85059,85.6825611 L142.836391,105.057208 L142.836391,123.704613 L140.066588,130.796751 L140.066588,135.768631 L139.217446,142.676955 L139.217446,182.159248 L125.536387,182.671664 L113.524058,168.396707 L116.662206,147.305971 L118.687748,148.073875 L121.875274,147.305971 L123.662941,149.974204 L127.164029,173.724177 L129.285803,173.724177 L129.285803,154.57839 L130.430126,139.534809 L132.490268,135.058007 L129.827149,132.278583 L132.490268,128.779473 L131.962618,96.9204463 L127.164029,89.3554748 L127.164029,86.9833922 L128.180224,82.9193295 L129.827149,82.9193295 L131.453709,81.125514 L133.304089,79.7070144 Z M356.137384,148.641051 L363.9916,151.912095 L359.76938,156.536359 L352.934206,158.47917 L347.311414,155.226974 L350.048365,150.446602 L356.137384,148.641051 Z M267.601067,89.4655801 L275.454488,103.083667 L275.525535,116.994489 L269.383522,118.427107 L268.430661,109.009607 L264.703006,99.3362541 L261.070086,105.674435 L258.773674,127.48853 L261.25285,132.110011 L265.613479,134.899977 L271.866159,123.533745 L277.457616,125.361052 L266.32907,147.441982 L259.938798,144.592467 L250.927135,127.590993 L254.086954,97.5752141 L267.601067,89.4655801 Z M190.984337,80.5575265 L198.773921,81.3749407 L202.874537,94.7983134 L204.658982,108.353531 L200.954085,114.748916 L193.399333,114.748916 L190.170468,108.353531 L194.604137,106.346253 L195.172093,100.951129 L193.674193,93.8328586 L187.560323,113.082948 L193.399333,132.429273 L200.954085,129.563147 L203.736218,135.737204 L190.401725,146.265842 L183.183353,135.539312 L177.998379,105.255063 L183.6669,95.5445953 L190.984337,80.5575265 Z M28.3921811,82.9193295 L27.8356977,101.75961 L30.3542899,97.2263125 L33.2765488,95.153619 L38.7948896,92.7066891 L46.1297307,94.1906801 L49.1878668,97.8697112 L49.1878668,105.389343 L56.2419433,94.1906801 L62.6663718,92.7066891 L67.2991686,95.8412783 L72.5536843,115.200812 L78.8577335,137.403821 L77.1158717,141.257376 L71.8670904,143.999534 L69.100171,142.061264 L68.3638396,135.156964 L64.6378513,119.881644 L62.6663718,107.293369 L60.0497462,103.859652 L56.2419433,110.943873 L54.1280991,122.763984 L54.1280991,131.502108 L53.0814489,141.257376 L49.1878668,141.257376 L46.600435,138.819442 L44.9435992,121.966573 L40.2927816,101.75961 L38.0409092,101.024264 L32.5229174,112.179213 L30.8718483,127.795304 L31.9617485,140.681268 L27.8356977,142.061264 L22.0726339,136.570066 L21.5345317,118.29114 L21.5345317,103.859652 L20,92.0098863 L22.0726339,83.7145817 L28.3921811,82.9193295 Z M105.409995,114.916896 L105.731005,116.624328 C108.905432,133.81283 108.798429,142.866957 105.409995,143.78671 C101.91107,144.736455 99.2481907,142.507469 97.4213583,137.099754 L97.4685973,135.406265 C98.1734553,108.000822 95.6094424,93.0845287 89.7765588,90.6573854 C83.8246367,88.1807085 81.1553903,92.0829619 81.7688196,102.364146 L78.8577335,102.364146 C75.0361147,94.1810843 77.502927,87.699479 86.2581705,82.9193295 C95.0134141,78.1391801 101.397356,88.8050355 105.409995,114.916896 Z M169.299197,78.3958027 L174.019978,86.25433 L174.811046,101.386603 L175.663362,125.324133 L174.121398,139.971568 L170.485279,142.477968 L168.427956,139.374116 L168.38334,116.056684 L167.147427,98.8359147 L161.809539,111.019974 L162.639813,141.654689 L156.104835,143.831453 L150.162204,120.891676 L149.329768,83.6634181 L154.029378,84.1565802 L155.958878,101.734394 L162.534463,82.7550764 L169.299197,78.3958027 Z M239.148728,96.3157693 L245.0049,101.163122 L243.34558,116.950494 L244.622028,143.225639 L237.624661,142.490186 L235.671642,129.398031 L234.636999,112.047784 L235.881805,100.204246 L239.148728,96.3157693 Z M91.5011529,107.973372 L95.1200974,143.210962 L90.4072881,143.210962 L82.4298239,123.559596 L84.5465514,110.844917 L88.8376732,107.973372 L91.5011529,107.973372 Z M217.636964,80.4674199 L224.748288,81.2148502 L224.621465,91.1278983 L229.623062,88.3902076 L232.670477,91.9236526 L224.542091,97.3074537 L223.970958,142.166387 L218.403526,141.581227 L216.050495,123.061548 L216.818048,102.423095 L210.252503,106.772431 L209.028732,99.6644717 L217.086013,95.2528259 L217.636964,80.4674199 Z M118.687748,81.8098276 L121.234093,82.9193295 L123.80891,89.7818883 L127.164029,108.434331 L126.543031,122.014792 L123.80891,137.565391 L116.9509,135.653187 L112.520657,127.836326 L114.352942,120.783452 L110.691182,114.445142 L110.211467,94.8186055 L118.687748,81.8098276 Z M240.489846,76.999755 L248.344062,80.270799 L244.121842,84.895063 L237.286667,86.8378745 L231.663876,83.585678 L234.400827,78.8053059 L240.489846,76.999755 Z" id="magmag" fill="#313131"></path>
    </g>
</svg>