<?xml version="1.0" encoding="UTF-8"?>
<svg width="269px" height="186px" viewBox="0 0 269 186" version="1.1" xmlns="http://www.w3.org/2000/svg" xmlns:xlink="http://www.w3.org/1999/xlink">
    <title>MagMag</title>
    <defs>
        <polygon id="path-1" points="139.326098 75.5551761 138.073465 75.5251936 130.968226 91.5178161 125.72015 74.1887204 124.580242 74 120 100.555039 123.878503 101.553126 125.986129 89.6120995 129.753247 102.334973 130.721352 102.437207 136.039534 90.5539045 136.592776 102.749749 140.540995 102.8"></polygon>
        <filter x="-87.6%" y="-41.7%" width="275.3%" height="266.7%" filterUnits="objectBoundingBox" id="filter-2">
            <feOffset dx="0" dy="18" in="SourceAlpha" result="shadowOffsetOuter1"></feOffset>
            <feGaussianBlur stdDeviation="3" in="shadowOffsetOuter1" result="shadowBlurOuter1"></feGaussianBlur>
            <feColorMatrix values="0 0 0 0 0   0 0 0 0 0   0 0 0 0 0  0 0 0 0.216919799 0" type="matrix" in="shadowBlurOuter1"></feColorMatrix>
        </filter>
        <path d="M148.044423,101.367553 L155.949193,122.582142 L160.849716,127.976757 L159.390592,130.738059 L153.320344,132.408522 L150.394742,128.725898 L144.583859,129.522602 L142.459584,134.167553 L138.090073,133.632068 L136.817588,131.483206 L139.270001,125.373194 L143.341296,102.154562 L148.044423,101.367553 Z M146.588748,111.10255 L145.904473,123.10255 L150.145436,122.483543 L146.588748,111.10255 Z" id="path-3"></path>
        <filter x="-56.2%" y="-22.9%" width="212.3%" height="191.5%" filterUnits="objectBoundingBox" id="filter-4">
            <feOffset dx="0" dy="9" in="SourceAlpha" result="shadowOffsetOuter1"></feOffset>
            <feGaussianBlur stdDeviation="3" in="shadowOffsetOuter1" result="shadowBlurOuter1"></feGaussianBlur>
            <feColorMatrix values="0 0 0 0 0   0 0 0 0 0   0 0 0 0 0  0 0 0 0.216919799 0" type="matrix" in="shadowBlurOuter1"></feColorMatrix>
        </filter>
        <polygon id="path-5" points="183.962946 76.1904853 169.052039 78.0185304 161.129316 96.0113968 169.68025 115.716874 175.352474 116.190485 189.129316 95.2107431 187.42131 90.8199985 184.258216 88.7340944 175.637587 89.8130158 175.67439 93.2681844 179.799942 94.2862734 175.134148 98.7688988 172.98163 108.84618 168.550472 96.1618617 174.069031 81.8629935 180.389227 84.7234578 184.288448 84.2100677 183.166276 80.6273546"></polygon>
        <filter x="-130.4%" y="-91.2%" width="435.7%" height="465.0%" filterUnits="objectBoundingBox" id="filter-6">
            <feOffset dx="11" dy="63" in="SourceAlpha" result="shadowOffsetOuter1"></feOffset>
            <feGaussianBlur stdDeviation="5" in="shadowOffsetOuter1" result="shadowBlurOuter1"></feGaussianBlur>
            <feColorMatrix values="0 0 0 0 0   0 0 0 0 0   0 0 0 0 0  0 0 0 0.161849869 0" type="matrix" in="shadowBlurOuter1"></feColorMatrix>
        </filter>
        <path d="M76.8577987,74 L93.3933856,97.2451826 L99.3935743,101.624065 L97.6860096,104.523082 L92.3514257,106.254736 L87.7701457,102.927128 L79.6885919,104.359958 L77.2805871,109.2 L71.0615031,109.152858 L69,107.163167 L71.6865727,100.834186 L73.853652,74.5684034 L76.8577987,74 Z M78.909208,86.0835151 L79.4491281,98.0835151 L85.2706538,96.9986205 L78.909208,86.0835151 Z" id="path-7"></path>
        <filter x="-59.2%" y="-34.1%" width="218.4%" height="236.4%" filterUnits="objectBoundingBox" id="filter-8">
            <feOffset dx="0" dy="18" in="SourceAlpha" result="shadowOffsetOuter1"></feOffset>
            <feGaussianBlur stdDeviation="3" in="shadowOffsetOuter1" result="shadowBlurOuter1"></feGaussianBlur>
            <feColorMatrix values="0 0 0 0 0   0 0 0 0 0   0 0 0 0 0  0 0 0 0.216919799 0" type="matrix" in="shadowBlurOuter1"></feColorMatrix>
        </filter>
        <polygon id="path-9" points="94 61.784125 94.9777723 70.468414 102.186858 80.2 107.754767 79.299073 113.191666 74.1501301 112.001089 68.9273333 113.2 65.3588644 111.18176 61 103.131711 66.8460601 103.601158 69.1884849 106.141885 68.6002696 107.825924 71.8970713 103.218233 76.0470688 99.8221024 69.5279664 99.1132345 62.2084744"></polygon>
        <filter x="-33.9%" y="-23.4%" width="167.7%" height="193.8%" filterUnits="objectBoundingBox" id="filter-10">
            <feOffset dx="0" dy="7" in="SourceAlpha" result="shadowOffsetOuter1"></feOffset>
            <feGaussianBlur stdDeviation="1" in="shadowOffsetOuter1" result="shadowBlurOuter1"></feGaussianBlur>
            <feColorMatrix values="0 0 0 0 0   0 0 0 0 0   0 0 0 0 0  0 0 0 0.216919799 0" type="matrix" in="shadowBlurOuter1"></feColorMatrix>
        </filter>
        <polygon id="path-11" points="35.0789744 5.35740672 32.0686261 3 4 71.3482913 15.2335563 76.0455139 27.6858561 46.4773365 32.6842253 81.0498185 35.5739203 81.8027407 56.3614692 59.0471436 53.222516 85.7078094 65.1247906 88.0931232 71.507629 31.0482239 68.1148102 28.893589 41.2368478 56.1449011"></polygon>
        <filter x="-79.3%" y="-49.9%" width="258.5%" height="299.8%" filterUnits="objectBoundingBox" id="filter-12">
            <feOffset dx="0" dy="74" in="SourceAlpha" result="shadowOffsetOuter1"></feOffset>
            <feGaussianBlur stdDeviation="5.5" in="shadowOffsetOuter1" result="shadowBlurOuter1"></feGaussianBlur>
            <feColorMatrix values="0 0 0 0 0   0 0 0 0 0   0 0 0 0 0  0 0 0 0.216919799 0" type="matrix" in="shadowBlurOuter1"></feColorMatrix>
        </filter>
    </defs>
    <g id="Landscape" stroke="none" stroke-width="1" fill="none" fill-rule="evenodd">
        <g id="375-light" transform="translate(-62.000000, -359.000000)">
            <g id="Header-+-Player" transform="translate(22.000000, 354.000000)">
                <g id="MagMag" transform="translate(58.000000, 6.000000)">
                    <g id="Shadow" transform="translate(-0.000000, 0.000000)" fill="black" fill-opacity="1">
                        <g id="Shadow-6" transform="translate(130.270498, 88.400000) scale(-1, 1) rotate(8.000000) translate(-130.270498, -88.400000) ">
                            <use filter="url(#filter-2)" xlink:href="#path-1"></use>
                        </g>
                        <g id="Shadow-5" transform="translate(148.833652, 117.767553) scale(-1, 1) rotate(-4.000000) translate(-148.833652, -117.767553) ">
                            <use filter="url(#filter-4)" xlink:href="#path-3"></use>
                        </g>
                        <g id="Shadow-4" transform="translate(175.129316, 96.190485) rotate(-29.000000) translate(-175.129316, -96.190485) ">
                            <use filter="url(#filter-6)" xlink:href="#path-5"></use>
                        </g>
                        <g id="Shadow-3" transform="translate(84.196787, 91.600000) rotate(11.000000) translate(-84.196787, -91.600000) ">
                            <use filter="url(#filter-8)" xlink:href="#path-7"></use>
                        </g>
                        <g id="Shadow-2" transform="translate(103.600000, 70.600000) rotate(91.000000) translate(-103.600000, -70.600000) ">
                            <use filter="url(#filter-10)" xlink:href="#path-9"></use>
                        </g>
                        <g id="Shadow-1" transform="translate(37.753814, 45.546562) rotate(5.000000) translate(-37.753814, -45.546562) ">
                            <use filter="url(#filter-12)" xlink:href="#path-11"></use>
                        </g>
                    </g>
                    <path d="M150.480449,100.880045 L155.862407,102.172109 L158.335365,125.918067 L160.415233,132.369258 L158.716051,134.829364 L153.70872,135.090628 L151.881638,130.223576 L146.688475,129.138016 L143.482333,132.64122 L137.027773,130.369946 L135.535552,126.995058 L140.984244,121.779494 L150.480449,100.880045 Z M151.002729,114.017563 L147.87513,122.016901 L150.891461,122.674799 L151.002729,114.017563 Z M173.413795,73.6126009 L160.480218,83.0057608 L162.319843,103.084457 L179.762491,116.489093 L185.497032,113.908631 L187.416893,88.3266084 L183.473674,85.0477785 L179.35299,84.730501 L171.82689,90.2254318 L173.945966,93.9541244 L177.545877,92.9802511 L175.860612,98.4423414 L178.388336,106.739798 L169.831466,99.1042228 L167.82382,84.6288805 L174.353141,84.0979329 L178.107338,81.3199033 L175.047134,78.4048478 L173.413795,73.6126009 Z M76.9152795,72.405865 L80.673669,72.4246212 L92.5689289,98.6155508 L97.8764553,104.331454 L95.2212431,107.33276 L89.2133966,108.068717 L85.3224704,103.897269 L77.5804081,103.76941 L74.2564303,108.10896 L67.6587005,106.774513 L65.7028774,103.982918 L69.6949439,98.064572 L76.9152795,72.405865 Z M80.2559972,87.2584871 L78.8780806,96.5629643 L83.5148946,96.5988567 L80.2559972,87.2584871 Z M134.225677,72.722569 L132.352514,73.3096002 L129.726222,90.1793333 L120.999338,76.1888127 L118.973313,76.5231707 L121.656562,104.663804 L126.549046,103.912598 L125.55347,93.3857258 L131.546925,102.936357 L133.16728,102.53151 L134.862795,91.1777492 L138.12235,101.203805 L142.749626,99.2936247 L134.225677,72.722569 Z M35.6573872,1.85019425 L1.20740071,68.5201178 L12.870339,74.641183 L27.2450961,47.4206165 L29.1286837,80.8324974 L32.5386129,82.0469838 L54.3091405,62.0364593 L49.0801321,87.2532863 L61.6950126,90.9498854 L73.1945927,33.83784 L69.4339875,30.9607786 L40.7650145,55.3558322 L39.0846716,5.05341293 L35.6573872,1.85019425 Z M113.140454,60.600054 L103.70091,61.4963318 L93.4878607,68.7895072 L94.3567924,74.8260432 L99.7064919,80.6761302 L105.090785,79.5472131 L108.692862,80.8278004 L113.824534,78.5596404 L107.587315,69.6478934 L104.414869,70.2262861 L104.984634,72.8987572 L102.354705,74.1847787 L98.9613892,70.282362 L104.87413,67.3321504 L112.524255,66.7258202 L113.140454,60.600054 Z" stroke="#000000" fill="#000000"></path>
                </g>
            </g>
        </g>
    </g>
</svg>