<?xml version="1.0" encoding="UTF-8"?>
<svg width="216px" height="99px" viewBox="0 0 216 99" version="1.1" xmlns="http://www.w3.org/2000/svg" xmlns:xlink="http://www.w3.org/1999/xlink">
    <!-- Generator: Sketch 64 (93537) - https://sketch.com -->
    <title>Desenho</title>
    <desc>Created with Sketch.</desc>
    <g id="Branding" stroke="none" stroke-width="1" fill="none" fill-rule="evenodd">
        <g id="iPhone" transform="translate(-131.000000, -371.000000)">
            <g id="Desenho" transform="translate(131.000000, 371.000000)">
                <g id="Group">
                    <polygon id="Border" fill="#350000" points="-9.57862402e-13 11.9936564 2.20425986 23.9469671 2.20425986 52.9605515 11.8235866 62.9040623 20.3495458 60.405628 20.9282869 53.6192872 24.0596439 55.9883317 30.85369 62.0887645 38.403789 60.8492697 39.5364803 53.6192872 42.3143521 56.7576093 43.9052489 62.9040623 48.5983139 67.1470791 53.8787825 64.366111 57.6950166 60.405628 62.32085 67.1470791 70.221132 66.875327 78.4098875 62.0887645 76.7063895 69.6820698 71.8415727 80.7384191 85.0417145 98.0487288 105.842548 96.3225792 107.807149 75.8595365 111.009578 55.9883317 118.517428 62.9040623 126.837277 60.405628 127.938166 55.0962685 130.018053 60.8492697 140.331451 62.0272353 143.048569 56.7576093 147.15457 60.8492697 154.526489 66.875327 159.820582 62.0887645 165.566139 65.6813239 173.439573 62.0887645 178.257582 63.5902878 184.719989 60.8492697 180.498024 68.6619976 196.673542 85.4124583 211.389979 76.8008082 213.043516 69.6820698 209.123063 55.0962685 215.614297 45.67583 215.614297 23.9469671 210.11454 9.29609293 203.076081 5.15866975 194.370884 7.96332129 189.117391 4.02163271 182.943752 5.15866975 181.42802 10.7312268 178.83805 13.2532622 171.602427 3.43459178 162.366548 1.04251201 155.302041 7.18896501 153.871931 15.3582445 146.433763 11.6649807 139.235641 13.2532622 137.021018 15.3582445 130.018053 12.304138 124.848209 13.2532622 124.16766 5.15866975 110.618815 5.15866975 106.484434 10.7312268 101.626483 2.9604778 97.0813225 2.11920184 93.0535943 6.0650729 89.9029919 7.18896501 84.0257114 4.02163271 79.8566751 7.18896501 74.5933229 15.3582445 70.221132 7.18896501 64.6111712 2.11920184 52.515953 6.77877344 48.5983139 14.9190842 40.1096721 12.304138 31.848378 14.9190842 22.1560783 12.304138 17.014018 14.9190842 17.5033681 5.15866975 14.8988496 -9.06466868e-13 6.65381293 2.11920184"></polygon>
                    <path d="M96.4775132,8.27877344 L99.252289,12.9614896 L103.935569,28.1443636 L103.935569,42.757337 L101.768481,48.3150663 L101.768481,52.2112629 L101.104113,57.6249468 L101.104113,88.5651071 L90.4000773,88.9666601 L81.0016522,77.7801401 L83.456934,61.2524586 L85.0417145,61.854224 L87.5356289,61.2524586 L88.9342964,63.3434101 L91.6735415,81.9549933 L93.3336132,81.9549933 L93.3336132,66.9514646 L94.2289296,55.1626152 L95.8407811,51.6543849 L93.7571613,49.4762987 L95.8407811,46.7342337 L95.4279486,21.768019 L91.6735415,15.8397556 L91.6735415,13.9808814 L92.4686107,10.7960929 L93.7571613,10.7960929 L95.0297795,9.39037571 L96.4775132,8.27877344 Z M201.595415,12.2510118 L204.252289,12.9614896 L210.11454,28.0426568 L208.935569,42.757337 L206.768481,48.3150663 L204.766638,54.3203128 L206.104113,57.6249468 L204.766638,75.4579836 L194.062602,75.8595365 L187.691101,66.9514646 L188.456934,61.2524586 L190.973536,58.8525609 L194.656326,61.2524586 L193.142422,67.5055333 L195.942926,70.7056006 L197.468611,69.455036 L198.333613,66.9514646 L199.22893,55.1626152 L199.22893,51.0335622 L200.427949,48.3150663 L199.22893,46.8276576 L200.427949,21.768019 L196.673542,15.8397556 L196.673542,13.9808814 L201.595415,12.2510118 Z M14.3946249,10.7960929 L13.9592333,25.5602126 L15.9297753,22.00771 L18.2161454,20.383451 L22.5336853,18.465923 L28.2724519,19.6288473 L30.6651321,22.5119071 L30.6651321,28.4046398 L36.1842288,19.6288473 L41.2106901,18.465923 L44.835382,20.9223327 L48.9465057,36.0933632 L53.8787825,53.4926739 L52.515953,56.5124985 L48.4093159,58.6613812 L46.2444831,57.1424629 L45.6683788,51.731932 L42.7531722,39.7614814 L41.2106901,29.8967237 L39.163447,27.2059028 L36.1842288,32.7574284 L34.5303609,42.0202166 L34.5303609,48.8678166 L33.7114637,56.5124985 L30.6651321,56.5124985 L28.6407301,54.6020203 L27.3444247,41.3953281 L23.7056333,25.5602126 L21.9437725,24.9839611 L17.6265056,33.7254981 L16.3347121,45.9629926 L17.1874481,56.0610335 L13.9592333,57.1424629 L9.45022255,52.8393044 L9.02921236,38.5150882 L9.02921236,27.2059028 L7.82859748,17.9198759 L9.45022255,11.4192895 L14.3946249,10.7960929 Z M74.6532245,35.8708735 C77.3907778,50.2090952 77.3907778,57.7503381 74.6532245,58.4946021 C71.9156713,59.2388662 69.8322395,57.4921298 68.4029292,53.2543929 C69.0721841,30.9322989 67.0784249,18.8008324 62.4216518,16.8599933 C57.7648786,14.9191541 55.676465,17.9771413 56.156411,26.0339548 L53.8787825,26.0339548 C50.8887548,19.6213276 52.8187843,14.5420403 59.6688711,10.7960929 C66.5189579,7.05014557 71.5137424,15.4084058 74.6532245,35.8708735 Z M119.394625,10.7960929 L118.959233,25.5602126 L120.929775,22.00771 L123.216145,20.383451 L127.533685,18.465923 L133.272452,19.6288473 L135.665132,22.5119071 L135.665132,28.4046398 L141.184229,19.6288473 L146.21069,18.465923 L149.835382,20.9223327 L153.946506,36.0933632 L158.878783,53.4926739 L157.515953,56.5124985 L153.409316,58.6613812 L151.244483,57.1424629 L150.668379,51.731932 L147.753172,39.7614814 L144.163447,27.2059028 L141.184229,32.7574284 L139.530361,42.0202166 L139.530361,48.8678166 L138.711464,56.5124985 L135.665132,56.5124985 L133.64073,54.6020203 L132.344425,41.3953281 L128.705633,25.5602126 L127.533685,24.5348991 L122.626506,33.7254981 L121.334712,45.9629926 L122.187448,56.0610335 L118.959233,57.1424629 L114.450223,52.8393044 L114.029212,38.5150882 L112.828597,17.9198759 L114.450223,11.4192895 L119.394625,10.7960929 Z M179.653225,35.8708735 C182.390778,50.2090952 182.390778,57.7503381 179.653225,58.4946021 C176.915671,59.2388662 174.83224,57.4921298 173.402929,53.2543929 C174.072184,30.9322989 172.078425,18.8008324 167.421652,16.8599933 C162.764879,14.9191541 160.676465,17.9771413 161.156411,26.0339548 L158.878783,26.0339548 C155.888755,19.6213276 157.818784,14.5420403 164.668871,10.7960929 C171.518958,7.05014557 176.513742,15.4084058 179.653225,35.8708735 Z M63.7709711,30.4296058 L66.6024268,58.0434191 L62.9151332,58.0434191 L56.6735796,42.6436952 L58.3297034,32.6798813 L61.6870694,30.4296058 L63.7709711,30.4296058 Z M168.770971,30.4296058 L171.602427,58.0434191 L167.915133,58.0434191 L161.67358,42.6436952 L163.329703,32.6798813 L166.687069,30.4296058 L168.770971,30.4296058 Z M85.0417145,9.92663567 L87.0339697,10.7960929 L89.0485021,16.173913 L91.6735415,30.7908342 L91.1876738,41.4331147 L89.0485021,53.6192872 L83.6828075,52.1207954 L80.2165937,45.9951394 L81.6501697,40.4681799 L78.7852154,35.5011854 L78.4098875,20.1209188 L85.0417145,9.92663567 Z M189.233517,13.4936564 L194.048502,16.173913 L196.673542,30.7908342 L194.048502,41.4206884 L196.187674,50.4154078 L185.216594,45.9951394 L185.216594,39.6830884 L183.785215,35.5011854 L183.409888,20.1209188 L184.765129,19.3361423 L185.216594,14.755705 L189.233517,13.4936564 Z" id="MagMag" fill="#F9F9F9"></path>
                </g>
            </g>
        </g>
    </g>
</svg>