<?xml version="1.0" encoding="UTF-8"?>
<svg width="580px" height="330px" viewBox="0 0 580 330" version="1.1" xmlns="http://www.w3.org/2000/svg" xmlns:xlink="http://www.w3.org/1999/xlink">
    <title>Slice</title>
    <g id="Page-1" stroke="none" stroke-width="1" fill="none" fill-rule="evenodd">
        <path d="M279.813,18.599 L314.784,18.874 L321.406,59.36 L352.297,82.747 L318.744,147.049 L350.315,145.29 L369.87,210.102 L376.634,146.942 L410.612,134.425 L438.561,175.724 L448.87,130.28 L475.712,118.398 L518.62,112.56 L520.453,143.042 L530.303,156.491 L553.071,189.088 L528.534,271.04 L506.154,289.339 L481.99,291.194 L465.581,266.434 L455.591,276.442 L434.299,283.277 L420.008,272.929 L408.341,274.926 L397.692,289.332 L367.081,288.64 L360.171,281.458 L335.278,289.909 L326.036,282.306 L310.532,299.179 L297.313,302.315 L281.214,288.379 L272.113,303.465 L257.532,304.232 L229.079,299.831 L225.482,229.533 L234.879,185.324 L219.38,184.223 L208.461,174.348 L197.716,174.864 L183.795,189.957 L151.35,178.462 L120.634,182.032 L114.022,164.086 L89.693,188.151 L70.9,160.782 L56.431,182.641 L17.95,168.782 L24.295,70.87 L36.24,38.099 L63.706,38.524 L90.546,84.577 L118.214,37.034 L143.522,45.407 L157.574,112.832 L184.206,24.202 L212.831,23.613 L230.274,71.889 L242.424,34.649 L279.813,18.599 Z M333.554,167.286 L326.405,168.441 L298.704,237.272 L255.075,175.821 L248.441,176.25 L243.5,283.22 L266.355,283.132 L268.85,234.982 L300.393,280.186 L305.981,279.598 L326.784,228.414 L339.627,274.847 L362.125,271.036 L333.554,167.286 Z M403.516,155.371 L394.986,156.617 L378.931,243.814 L369.26,266.76 L374.278,274.83 L391.509,276.841 L399.886,259.397 L422.801,256.405 L434.338,270.235 L449.739,265.313 L455.493,254.943 L440.39,236.752 L403.516,155.371 Z M504.06,131.04 L459.308,148.712 L447.906,215.275 L488.66,274.85 L506.534,272.054 L533.856,190.931 L525.385,177.504 L514.093,172.944 L488.236,183.235 L490.862,194.812 L504.352,195.041 L493.192,213.706 L493.867,249.219 L470.95,210.041 L477.608,157.745 L499.22,162.465 L510.897,157.725 L504.824,146.559 L504.06,131.04 Z M403.54,190.314 L418.759,234.624 L400.612,237.034 L403.54,190.314 Z M205.052,42.259 L196.436,42.562 L170.561,138.174 L158.43,159.92 L162.533,168.492 L179.439,172.38 L189.679,155.961 L212.784,155.501 L222.734,170.514 L238.583,167.311 L245.439,157.635 L232.423,137.896 L205.052,42.259 Z M304.009,30.41 L257.589,43.066 L238.954,107.975 L272.926,171.662 L290.999,170.843 L327.056,93.208 L320.109,78.933 L309.386,73.162 L282.556,80.553 L283.896,92.349 L297.279,94.056 L284.138,111.384 L280.914,146.757 L262.433,105.301 L274.788,54.052 L295.751,61.114 L307.879,57.684 L303.067,45.919 L304.009,30.41 Z M54.908,57.002 L48.267,56.7 L31.62,162.483 L54.347,164.903 L62.11,117.318 L88.503,165.71 L94.121,165.739 L120.415,117.145 L128.085,164.707 L150.866,163.388 L133.85,57.128 L126.617,57.491 L91.531,122.868 L54.908,57.002 Z M200.88,87.693 L211.146,133.406 L192.844,133.81 L200.88,87.693 Z" id="magMag" fill="#000000"></path>
    </g>
</svg>