<?xml version="1.0" encoding="UTF-8"?>
<svg width="248px" height="243px" viewBox="0 0 248 243" version="1.1" xmlns="http://www.w3.org/2000/svg" xmlns:xlink="http://www.w3.org/1999/xlink">
    <!-- Generator: Sketch 64 (93537) - https://sketch.com -->
    <title>Combined Shape</title>
    <desc>Created with Sketch.</desc>
    <g id="Page-1" stroke="none" stroke-width="1" fill="none" fill-rule="evenodd">
        <path d="M137.572269,205.337202 C147.020492,205.337202 153.237352,212.469243 153.237352,223.079471 L153.237352,223.079471 L153.237352,224.625333 L124.330707,224.625333 L124.330707,224.765865 C124.330707,234.708563 129.704603,240.575809 137.88838,240.575809 C144.59697,240.575809 148.952285,236.992222 150.041113,232.214105 L150.041113,232.214105 L152.780747,232.214105 C151.551424,238.39755 146.00191,243 137.853257,243 C127.913304,243 121.55595,236.008492 121.55595,224.203734 C121.55595,212.855708 127.913304,205.337202 137.572269,205.337202 Z M101.89735,205.337202 C109.940633,205.337202 115.244282,210.536916 115.244282,218.758087 L115.244282,218.758087 L115.244282,242.437869 L112.504649,242.437869 L112.504649,219.109419 C112.504649,212.047644 108.043963,207.796526 101.265127,207.796526 C94.2053018,207.796526 89.358258,213.031374 89.358258,220.620147 L89.358258,220.620147 L89.358258,242.437869 L86.6186245,242.437869 L86.6186245,205.899333 L89.1826405,205.899333 L89.1826405,213.839438 L89.2528875,213.839438 C90.9036923,208.815389 95.6804891,205.337202 101.89735,205.337202 Z M77.9536819,205.899333 L77.9536819,242.437869 L75.2140484,242.437869 L75.2140484,205.899333 L77.9536819,205.899333 Z M68.3052812,205.899333 L68.3052812,208.147858 L44.4564204,239.978544 L44.4564204,240.083944 L68.3404047,240.083944 L68.3404047,242.437869 L41.2953049,242.437869 L41.2953049,240.189343 L65.1090421,208.358658 L65.1090421,208.253258 L41.3304284,208.253258 L41.3304284,205.899333 L68.3052812,205.899333 Z M137.537145,207.761393 C129.950468,207.761393 124.752189,213.628639 124.36583,222.341674 L124.36583,222.341674 L150.427472,222.341674 C150.392348,213.698905 145.229193,207.761393 137.537145,207.761393 Z M76.5838652,192.618981 C77.7780644,192.618981 78.7263991,193.567577 78.7263991,194.762106 C78.7263991,195.956635 77.7780644,196.905232 76.5838652,196.905232 C75.4247895,196.905232 74.4062078,195.956635 74.4062078,194.762106 C74.4062078,193.567577 75.4247895,192.618981 76.5838652,192.618981 Z M158.210269,143.905617 C169.484914,143.905617 176.931097,150.440394 177.106715,160.945223 L177.106715,160.945223 L164.005647,160.945223 C163.724659,157.010304 161.547002,154.621246 158.456133,154.621246 C154.662795,154.621246 152.625631,157.994034 152.625631,164.247745 C152.625631,170.571722 154.627671,173.94451 158.456133,173.94451 C161.687496,173.94451 163.759783,171.695985 164.005647,167.866465 L164.005647,167.866465 L177.106715,167.866465 C176.966221,178.371294 169.801026,184.660138 158.280516,184.660138 C145.7063,184.660138 138.049376,177.036232 138.049376,164.247745 C138.049376,151.59979 145.741424,143.905617 158.210269,143.905617 Z M133.35339,144.889347 L133.35339,183.676408 L118.952752,183.676408 L118.952752,144.889347 L133.35339,144.889347 Z M107.126694,136.387111 L107.126694,144.889347 L113.940654,144.889347 L113.940654,155.32391 L107.126694,155.32391 L107.126694,169.658258 C107.126694,172.08245 108.531634,173.347245 111.482009,173.347245 C112.570837,173.347245 113.09769,173.312112 113.940654,173.171579 L113.940654,173.171579 L113.940654,183.14941 C112.570837,183.430476 110.744415,183.676408 108.004782,183.676408 C97.0462477,183.676408 92.7260565,180.51442 92.7260565,172.85538 L92.7260565,172.85538 L92.7260565,155.32391 L87.5980245,155.32391 L87.5980245,144.889347 L92.7260565,144.889347 L92.7260565,136.387111 L107.126694,136.387111 Z M233.353498,144.177314 C241.256287,144.177314 246.911171,149.236496 248,155.771273 L248,155.771273 L245.29549,155.771273 C244.206661,150.536425 239.675729,146.636639 233.388621,146.636639 C225.204844,146.636639 220.006566,152.995749 220.006566,163.008713 C220.006566,173.091944 225.204844,179.380788 233.388621,179.380788 C239.605482,179.380788 244.136414,175.797201 245.260367,170.562353 L245.260367,170.562353 L247.964876,170.562353 C246.876048,177.202529 241.150916,181.840113 233.388621,181.840113 C223.55404,181.840113 217.266932,174.637805 217.266932,163.008713 C217.266932,151.485021 223.589163,144.177314 233.353498,144.177314 Z M193.05284,135.14808 L193.05284,144.739446 L200.393652,144.739446 L200.393652,147.09337 L193.05284,147.09337 L193.05284,172.881145 C193.05284,177.202529 194.668521,178.924056 198.356489,178.924056 C198.532107,178.924056 200.744888,178.888923 200.885382,178.888923 L200.885382,178.888923 L200.885382,181.277981 C200.639517,181.313114 198.391613,181.348248 197.970131,181.348248 C192.631358,181.348248 190.34833,178.994323 190.34833,172.951411 L190.34833,172.951411 L190.34833,147.09337 L184.904186,147.09337 L184.904186,144.739446 L190.34833,144.739446 L190.34833,135.14808 L193.05284,135.14808 Z M210.428412,144.739446 L210.428412,181.277981 L207.688778,181.277981 L207.688778,144.739446 L210.428412,144.739446 Z M20.1064379,130.386359 C26.8150276,130.386359 32.0133066,134.848277 33.7694819,140.750655 L33.7694819,140.750655 L33.8397289,140.750655 L33.8397289,130.948491 L36.4037448,130.948491 L36.4037448,167.065428 C36.4037448,175.251465 30.5029958,180.661979 21.1601431,180.661979 C13.2573542,180.661979 7.74296374,176.516261 6.72438206,171.351679 L6.72438206,171.351679 L9.53426256,171.351679 C10.7635853,175.251465 15.0135295,178.272921 21.3006372,178.272921 C28.8873145,178.272921 33.6992349,173.846137 33.6992349,167.170827 L33.6992349,167.170827 L33.6992349,157.790261 L33.5938643,157.790261 C31.978183,163.481841 26.7799041,167.943758 20.0713144,167.943758 C10.8689558,167.943758 4.6520952,160.390118 4.6520952,149.182625 C4.6520952,137.939999 10.9040793,130.386359 20.1064379,130.386359 Z M58.9424724,130.386359 C66.9506318,130.386359 71.9381697,135.164475 71.9381697,142.788381 L71.9381697,142.788381 L71.9381697,167.487026 L69.3039067,167.487026 L69.3039067,159.652321 L69.2336597,159.652321 C67.3721139,164.606103 61.8928469,168.049158 55.7813568,168.049158 C48.651285,168.049158 43.6988707,163.798039 43.6988707,157.649728 C43.6988707,151.396017 48.1946795,147.81243 56.624321,147.144899 L56.624321,147.144899 L69.1985362,146.266569 L69.1985362,142.999181 C69.1985362,136.675203 65.370074,132.845684 58.9073489,132.845684 C52.5499942,132.845684 48.5459145,136.042806 47.6327034,141.558719 L47.6327034,141.558719 L44.9984404,141.558719 C45.7009105,134.77801 50.9694365,130.386359 58.9424724,130.386359 Z M69.1985362,148.515094 L57.0106795,149.393424 C50.1615958,149.920423 46.4385042,152.801346 46.4385042,157.649728 C46.4385042,162.322445 50.5128309,165.660099 56.1677154,165.660099 C63.3680342,165.660099 69.1985362,160.425252 69.1985362,153.925608 L69.1985362,153.925608 L69.1985362,148.515094 Z M20.4225495,132.845684 C12.6602546,132.845684 7.39172868,139.450727 7.39172868,149.217758 C7.39172868,158.949657 12.6602546,165.484433 20.4225495,165.484433 C28.2550914,165.484433 33.6992349,158.844257 33.6992349,149.182625 C33.6992349,139.520993 28.2550914,132.845684 20.4225495,132.845684 Z M126.082824,127.779475 C129.911286,127.779475 132.931908,130.836064 132.931908,134.489918 C132.931908,138.143771 129.911286,141.20036 126.082824,141.20036 C122.254362,141.20036 119.23374,138.143771 119.23374,134.489918 C119.23374,130.836064 122.254362,127.779475 126.082824,127.779475 Z M209.058595,131.459093 C210.252794,131.459093 211.201129,132.40769 211.201129,133.602219 C211.201129,134.796748 210.252794,135.745344 209.058595,135.745344 C207.899519,135.745344 206.880938,134.796748 206.880938,133.602219 C206.880938,132.40769 207.899519,131.459093 209.058595,131.459093 Z M104.998157,64.4296179 C111.706746,64.4296179 116.905025,68.8915353 118.661201,74.7939141 L118.661201,74.7939141 L118.731448,74.7939141 L118.731448,64.9917492 L121.295464,64.9917492 L121.295464,101.108686 C121.295464,109.294724 115.394715,114.705238 106.051862,114.705238 C98.149073,114.705238 92.6346825,110.559519 91.6161008,105.394938 L91.6161008,105.394938 L94.4259813,105.394938 C95.6553041,109.294724 99.9052483,112.31618 106.192356,112.31618 C113.779033,112.31618 118.590954,107.889395 118.590954,101.214086 L118.590954,101.214086 L118.590954,91.8335197 L118.485583,91.8335197 C116.869902,97.5250993 111.671623,101.987017 104.963033,101.987017 C95.7606746,101.987017 89.543814,94.433377 89.543814,83.2258839 C89.543814,71.9832575 95.7957981,64.4296179 104.998157,64.4296179 Z M205.001231,68.954775 C217.013471,68.954775 224.775765,76.6138142 224.775765,88.4888383 L224.775765,88.4888383 L224.775765,92.3886244 L199.065359,92.3886244 L199.065359,93.3020878 C199.065359,97.0964741 201.804992,99.8368643 205.668578,99.8368643 C208.583829,99.8368643 210.937104,98.4666692 211.780068,96.1478775 L211.780068,96.1478775 L224.600148,96.1478775 C223.405949,104.509581 216.100259,109.709296 205.457837,109.709296 C192.743128,109.709296 185.191574,102.155656 185.191574,89.5428346 C185.191574,76.8597467 192.813375,68.954775 205.001231,68.954775 Z M167.183779,69.1655743 C175.894408,69.1655743 180.671205,74.5760882 180.671205,83.8863882 L180.671205,83.8863882 L180.671205,108.725566 L166.270568,108.725566 L166.270568,87.08351 C166.270568,83.183724 164.444145,80.7946659 160.826424,80.7946659 C157.419444,80.7946659 155.347157,83.4296565 155.347157,87.0483768 L155.347157,87.0483768 L155.347157,108.725566 L140.94652,108.725566 L140.94652,69.9385048 L154.995922,69.9385048 L154.995922,77.5624108 L155.27691,77.5624108 C157.243826,72.1167637 161.28303,69.1655743 167.183779,69.1655743 Z M70.2715725,64.4296179 C78.2797319,64.4296179 83.2672698,69.2077341 83.2672698,76.8316401 L83.2672698,76.8316401 L83.2672698,101.530285 L80.6330069,101.530285 L80.6330069,93.6955797 L80.5627598,93.6955797 C78.701214,98.6493619 73.221947,102.092416 67.110457,102.092416 C59.9803852,102.092416 55.0279708,97.8412981 55.0279708,91.6929869 C55.0279708,85.4392759 59.5237796,81.8556888 67.9534211,81.1881578 L67.9534211,81.1881578 L80.5276363,80.3098277 L80.5276363,77.0424394 C80.5276363,70.718462 76.6991742,66.8889424 70.236449,66.8889424 C63.8790944,66.8889424 59.8750147,70.0860643 58.9618035,75.6019779 L58.9618035,75.6019779 L56.3275405,75.6019779 C57.0300107,68.8212688 62.2985366,64.4296179 70.2715725,64.4296179 Z M36.3177054,64.4296179 C43.3424067,64.4296179 48.013833,69.2780005 48.013833,76.8667733 L48.013833,76.8667733 L48.013833,101.530285 L45.2741995,101.530285 L45.2741995,77.4991711 C45.2741995,70.9292613 41.6564784,66.8889424 35.6854823,66.8889424 C29.5388687,66.8889424 25.3591715,71.7724583 25.3591715,78.7990997 L25.3591715,78.7990997 L25.3591715,101.530285 L22.6546615,101.530285 L22.6546615,77.3937714 C22.6546615,71.0697941 18.6857053,66.8889424 13.1010678,66.8889424 C6.98957774,66.8889424 2.73963349,71.9481243 2.73963349,79.7125631 L2.73963349,79.7125631 L2.73963349,101.530285 L-1.3500312e-13,101.530285 L-1.3500312e-13,64.9917492 L2.56401596,64.9917492 L2.56401596,72.9318541 L2.63426297,72.9318541 C4.00407971,68.0834715 7.9027889,64.4296179 13.6630439,64.4296179 C19.4232989,64.4296179 23.5327492,68.2591375 24.6215779,73.1075201 L24.6215779,73.1075201 L24.7269484,73.1075201 C25.9913946,68.3996704 30.3467094,64.4296179 36.3177054,64.4296179 Z M80.5276363,82.5583529 L68.3397797,83.4366831 C61.490696,83.9636812 57.7676043,86.8446042 57.7676043,91.6929869 C57.7676043,96.3657034 61.841931,99.7033581 67.4968155,99.7033581 C74.6971343,99.7033581 80.5276363,94.4685102 80.5276363,87.9688669 L80.5276363,87.9688669 L80.5276363,82.5583529 Z M105.314268,66.8889424 C97.5519734,66.8889424 92.2834475,73.4939854 92.2834475,83.2610171 C92.2834475,92.9929155 97.5519734,99.5276921 105.314268,99.5276921 C113.14681,99.5276921 118.590954,92.8875159 118.590954,83.2258839 C118.590954,73.5642518 113.14681,66.8889424 105.314268,66.8889424 Z M205.317343,78.8623395 C202.050857,78.8623395 199.557088,81.2513976 199.2761,84.5890523 L199.2761,84.5890523 L211.358586,84.5890523 C211.112722,81.1108648 208.6892,78.8623395 205.317343,78.8623395 Z M160.252115,0.421598489 C165.907,0.421598489 170.12182,3.61872036 171.632131,7.97523808 L171.632131,7.97523808 L171.913119,7.97523808 L171.913119,0.983729807 L186.313757,0.983729807 L186.313757,39.4545919 C186.313757,48.6946254 177.708498,54.386205 165.239653,54.386205 C153.473278,54.386205 146.37833,49.29189 145.781231,42.0895824 L145.781231,42.0895824 L159.619892,42.0895824 C160.041374,43.9516424 162.324402,45.2867043 165.555765,45.2867043 C169.840832,45.2867043 171.913119,43.0733123 171.913119,39.805924 L171.913119,39.805924 L171.913119,32.357684 L171.632131,32.357684 C170.367685,36.4331361 165.836753,39.2789259 160.041374,39.2789259 C150.97951,39.2789259 144.903143,32.4279504 144.903143,20.2718607 C144.903143,7.79957204 150.593151,0.421598489 160.252115,0.421598489 Z M122.259045,0 C133.006838,0 140.207157,5.37538073 140.207157,13.2452192 L140.207157,13.2452192 L140.207157,39.7707908 L126.157754,39.7707908 L126.157754,34.5710761 L125.876766,34.5710761 C123.839603,38.3654625 119.133053,40.3329221 114.637244,40.3329221 C107.577419,40.3329221 101.5713,35.4845395 101.5713,28.4930312 C101.5713,21.0447912 107.296431,17.0044724 117.657866,16.3720746 L117.657866,16.3720746 L126.157754,15.8450765 L126.157754,13.9478833 C126.157754,11.348026 124.190838,9.94269769 121.486328,9.94269769 C118.535953,9.94269769 116.639284,11.5588252 116.428543,13.5262848 L116.428543,13.5262848 L103.57334,13.5262848 C103.924575,5.2348479 110.949276,0 122.259045,0 Z M84.7225802,0.210799244 C92.274134,0.210799244 97.4724129,5.65644639 97.4724129,13.5614181 L97.4724129,13.5614181 L97.4724129,39.7707908 L83.0717754,39.7707908 L83.0717754,17.285538 C83.0717754,13.5965513 81.4912176,11.7696245 78.3652255,11.7696245 C75.4499745,11.7696245 73.7289227,13.8424837 73.7289227,17.2504048 L73.7289227,17.2504048 L73.7289227,39.7707908 L60.0658788,39.7707908 L60.0658788,17.3206712 C60.0658788,13.6316845 58.485321,11.7696245 55.3944525,11.7696245 C52.4792014,11.7696245 50.7230261,13.8776169 50.7230261,17.2504048 L50.7230261,17.2504048 L50.7230261,39.7707908 L36.3223886,39.7707908 L36.3223886,0.983729807 L50.3717911,0.983729807 L50.3717911,8.81843505 L50.6527791,8.81843505 C52.0928429,3.58358715 56.4481577,0.210799244 61.7518071,0.210799244 C67.6525561,0.210799244 71.5863888,3.30252149 72.5347235,8.74816864 L72.5347235,8.74816864 L72.8157116,8.74816864 C74.1152813,3.61872036 78.8218311,0.210799244 84.7225802,0.210799244 Z M126.157754,23.5392489 L120.046264,23.9608474 C117.30663,24.1716467 115.761196,25.4715754 115.761196,27.3687686 C115.761196,29.476761 117.482248,30.7064233 120.01114,30.7064233 C123.20738,30.7064233 126.157754,28.9146297 126.157754,26.0688399 L126.157754,26.0688399 L126.157754,23.5392489 Z M165.801629,11.523692 C161.938043,11.523692 159.655016,14.8964799 159.655016,20.3772603 C159.655016,25.9634403 161.90292,28.8794965 165.801629,28.8794965 C169.700338,28.8794965 171.983366,25.9985735 171.983366,20.4123935 C171.983366,14.8964799 169.665215,11.523692 165.801629,11.523692 Z" id="Combined-Shape" fill="#FFFFFF" fill-rule="nonzero"></path>
    </g>
</svg>