<?xml version="1.0" encoding="UTF-8"?>
<svg width="755px" height="1200px" viewBox="0 0 755 1200" version="1.1" xmlns="http://www.w3.org/2000/svg" xmlns:xlink="http://www.w3.org/1999/xlink">
    <!-- Generator: Sketch 63.1 (92452) - https://sketch.com -->
    <title>Combined Shape</title>
    <desc>Created with Sketch.</desc>
    <g id="@estudiocrise" stroke="none" stroke-width="1" fill="none" fill-rule="evenodd">
        <g id="O-Estúdio" transform="translate(-349.000000, -1129.000000)" fill="#212121" fill-rule="nonzero">
            <g id="Mancha" transform="translate(349.000000, 1097.000000)">
                <path d="M451.838828,701.050607 C538.178868,701.050607 654.639204,802.489023 666.979042,927.243866 C679.318878,1051.99873 639.825852,1197.98812 510.548722,1215.55159 C381.271595,1233.11504 287.411185,1124.52278 250.314029,1094.14663 C213.216872,1063.77046 215.085872,1114.29033 232.699949,1140.40299 C250.314029,1166.51562 250.314029,1192.94943 234.119724,1215.55159 C217.925422,1238.15375 144.252432,1239.66535 116.594557,1206.15524 C88.9366834,1172.64512 90.6115736,1094.14663 151.390126,1094.14663 C212.168678,1094.14663 219.500483,1073.43813 215.834581,1027.14855 C212.168678,980.858961 166.197931,915.621652 231.280174,812.804494 C296.36242,709.987362 365.498787,701.050607 451.838828,701.050607 Z M136.94148,1041.49556 C159.875979,1041.49556 172.203098,1062.14714 162.445488,1071.99755 C152.687879,1081.84797 141.010128,1086.09151 125.181393,1074.35043 C109.352658,1062.60935 114.00698,1041.49556 136.94148,1041.49556 Z M669.270117,429.725072 C680.974626,433.536493 730.033655,448.961248 748.03433,485.344543 C763.545402,516.695814 750.613498,567.199487 734.014055,597.10399 C698.150883,661.712846 615.867737,716.98072 502.942971,671.463563 C390.018207,625.946406 450.253252,445.995638 520.859307,422.128267 C591.465362,398.260895 647.479904,422.629373 669.270117,429.725072 Z M200.871724,34.8106801 C266.838553,42.6898751 290.80557,72.8085419 349.443367,92.7141772 C408.081167,112.619812 463.083566,124.261423 500.566168,176.121247 C538.048772,227.981096 563.940246,313.780165 451.131949,440.317952 C338.323649,566.855739 97.2143151,488.592569 33.135896,355.609675 C-30.9425231,222.626781 9.41567795,102.700215 57.4550814,68.7554349 C105.494485,34.8106801 134.904893,26.9314851 200.871724,34.8106801 Z" id="Combined-Shape"></path>
            </g>
        </g>
    </g>
</svg>