<?xml version="1.0" encoding="UTF-8"?>
<svg width="634px" height="1170px" viewBox="0 0 634 1170" version="1.1" xmlns="http://www.w3.org/2000/svg" xmlns:xlink="http://www.w3.org/1999/xlink">
    <!-- Generator: Sketch 63.1 (92452) - https://sketch.com -->
    <title>Mancha</title>
    <desc>Created with Sketch.</desc>
    <g id="@estudiocrise" stroke="none" stroke-width="1" fill="none" fill-rule="evenodd">
        <g id="O-Estúdio" transform="translate(-419.000000, -1097.000000)" fill="#212121">
            <g id="Mancha" transform="translate(419.000000, 1097.000000)">
                <path d="M190.390412,964.564258 C199.697879,967.594282 238.709801,979.85672 253.024004,1008.78088 C265.358467,1033.70466 255.074968,1073.85428 241.875031,1097.6279 C213.356503,1148.99094 147.924642,1192.92804 58.1264518,1156.7426 C-31.6717382,1120.55716 16.2273921,977.499106 72.3735875,958.524915 C128.519783,939.550723 173.062755,958.923282 190.390412,964.564258 Z M274.462087,623.822288 C330.697689,630.086126 351.129162,654.030011 401.11689,669.854677 C451.104617,685.679342 497.993228,694.93424 529.946511,736.162005 C561.899794,777.38977 583.971836,845.598699 487.804677,946.194269 C391.637518,1046.78984 186.095907,984.571834 131.470143,878.852505 C76.8443785,773.133177 111.24906,677.79342 152.201835,650.807854 C193.154611,623.822288 218.226484,617.55845 274.462087,623.822288 Z M241.791244,0 C337.869772,0 414.804185,9.95069319 487.227202,124.432987 C559.650219,238.91528 508.494327,311.554108 504.41494,363.095492 C500.335552,414.636877 508.494327,437.694865 576.12823,437.694865 C643.762132,437.694865 645.625937,525.099436 614.848469,562.411453 C584.071001,599.72347 502.088269,598.04036 484.067374,572.873861 C466.046478,547.707361 466.046478,518.274518 485.647288,489.199258 C505.248098,460.123999 507.327907,403.872373 466.046478,437.694865 C424.76505,471.517357 320.317914,592.429994 176.459326,572.873861 C32.6007378,553.317728 -11.3467956,390.765078 2.38487998,251.856114 C16.1165556,112.947149 145.712716,0 241.791244,0 Z"></path>
            </g>
        </g>
    </g>
</svg>