<?xml version="1.0" encoding="UTF-8"?>
<svg width="240px" height="720px" viewBox="0 0 240 720" version="1.1" xmlns="http://www.w3.org/2000/svg" xmlns:xlink="http://www.w3.org/1999/xlink" style="background: #FFFFFF;">
    <!-- Generator: Sketch 63.1 (92452) - https://sketch.com -->
    <title>Mandala</title>
    <desc>Created with Sketch.</desc>
    <defs>
        <path d="M1.2819426,-5.17920154e-17 L238.718057,5.17920154e-17 C239.163817,-3.00926524e-17 239.32546,0.0464128056 239.488423,0.133566352 C239.651386,0.220719898 239.77928,0.348614185 239.866434,0.511577148 C239.953587,0.674540111 240,0.83618323 240,1.2819426 L240,718.718057 C240,719.163817 239.953587,719.32546 239.866434,719.488423 C239.77928,719.651386 239.651386,719.77928 239.488423,719.866434 C239.32546,719.953587 239.163817,720 238.718057,720 L1.2819426,720 C0.83618323,720 0.674540111,719.953587 0.511577148,719.866434 C0.348614185,719.77928 0.220719898,719.651386 0.133566352,719.488423 C0.0464128056,719.32546 2.00617683e-17,719.163817 -3.45280103e-17,718.718057 L3.45280103e-17,1.2819426 C-2.00617683e-17,0.83618323 0.0464128056,0.674540111 0.133566352,0.511577148 C0.220719898,0.348614185 0.348614185,0.220719898 0.511577148,0.133566352 C0.674540111,0.0464128056 0.83618323,3.00926524e-17 1.2819426,-5.17920154e-17 Z" id="path-1"></path>
    </defs>
    <g id="Mandala" stroke="none" stroke-width="1" fill="none" fill-rule="evenodd">
        <rect fill="#FFFFFF" x="0" y="0" width="240" height="720"></rect>
        <g>
            <mask id="mask-2" fill="white">
                <use xlink:href="#path-1"></use>
            </mask>
            <path stroke="#000000" stroke-width="11" d="M234.5,5.5 L5.5,5.5 L5.5,714.5 L234.5,714.5 L234.5,5.5 Z"></path>
            <g mask="url(#mask-2)">
                <g transform="translate(-686.000000, -586.000000)">
                    <path d="M840.260401,771.642156 L840.260401,842.260401 L773.642482,842.260401 L773.641744,833.058894 C774.968506,833.456761 776.337547,833.551349 777.618775,833.084616 C782.921947,831.153512 789.844145,823.834842 789.844145,823.834842 C790.276332,823.377826 790.846056,823.464102 791.112374,824.025143 C791.112374,824.025143 793.643164,829.372283 796.180651,831.820056 C797.277859,832.877553 798.366825,834.082952 799.930218,833.481485 C801.53482,832.865228 803.005491,831.925559 804.380864,830.934618 C807.172306,828.923154 809.840633,826.510877 811.817153,823.737227 C813.684467,821.121339 811.798094,812.968503 811.798094,812.968503 C811.659526,812.366543 811.210856,812.263998 810.80288,812.741228 C810.80288,812.741228 802.043244,822.966659 799.68708,821.949095 C798.636748,821.496023 796.7751,818.965425 797.649261,818.21014 C799.288377,816.795707 800.779137,815.221046 802.175116,813.587718 C805.129335,810.13372 808.933505,805.672019 808.957716,801.021003 C808.976775,797.735613 807.599341,791.937865 804.354078,790.056555 C801.440553,788.368997 796.269252,792.280997 793.997567,793.815724 C792.299728,794.963441 790.728608,796.271879 789.303783,797.719343 C788.364717,798.673802 787.388048,799.853565 787.388048,799.853565 C786.988829,800.336218 786.606094,801.232995 786.537583,801.845801 C786.537583,801.845801 786.390258,803.170015 786.329989,804.394641 C786.230055,806.469209 786.318656,808.54427 786.595276,810.604048 C786.772993,811.938614 787.022827,813.2648 787.316446,814.581618 C787.643033,816.043873 787.125851,816.70105 786.104881,817.809326 C783.667328,820.453809 777.65844,823.243235 777.65844,823.243235 C777.078928,823.510938 776.903787,823.315214 777.266947,822.807418 C777.266947,822.807418 781.995244,816.217904 782.725686,815.149561 C783.76108,813.636033 783.219172,811.491458 782.946158,809.76791 C782.093851,804.410336 776.333742,795.963841 773.641616,792.2486 L773.642482,771.642156 L840.260401,771.642156 Z M773.64177,813.038665 C773.735497,813.849402 773.758873,814.719162 773.642721,815.570555 Z M798.592234,799.907551 C799.175131,799.662906 799.531374,799.95029 799.382981,800.547656 C799.382981,800.547656 797.289229,809.008542 793.580442,811.694724 C793.129168,809.355859 792.601156,806.537038 793.314658,804.210454 C794.050012,801.816077 798.592234,799.907551 798.592234,799.907551 Z" id="Square-20" stroke="none" fill="#181818" fill-rule="evenodd"></path>
                    <polygon id="Square-18" stroke="#000000" stroke-width="3" fill="none" transform="translate(806.078267, 806.078267) rotate(-3.236000) translate(-806.078267, -806.078267) " points="762.078267 762.078267 850.078267 762.078267 850.078267 850.078267 762.078267 850.078267"></polygon>
                    <polygon id="Square-17" stroke="#000000" stroke-width="3" fill="none" transform="translate(806.451279, 806.451279) rotate(-5.000000) translate(-806.451279, -806.451279) " points="752.451279 752.451279 860.451279 752.451279 860.451279 860.451279 752.451279 860.451279"></polygon>
                    <polygon id="Square-16" stroke="#000000" stroke-width="3" fill="none" transform="translate(806.451279, 806.451279) rotate(-8.090000) translate(-806.451279, -806.451279) " points="741.547244 741.547244 871.355313 741.547244 871.355313 871.355313 741.547244 871.355313"></polygon>
                    <polygon id="Square-15" stroke="#000000" stroke-width="3" fill="none" transform="translate(806.451279, 806.451279) rotate(-12.944000) translate(-806.451279, -806.451279) " points="731.102917 731.102917 881.799641 731.102917 881.799641 881.799641 731.102917 881.799641"></polygon>
                    <polygon id="Square-14" stroke="#000000" stroke-width="2.98409354" fill="none" transform="translate(806.451279, 806.451279) rotate(-21.034000) translate(-806.451279, -806.451279) " points="719.166543 719.166543 893.736015 719.166543 893.736015 893.736015 719.166543 893.736015"></polygon>
                    <polygon id="Square-13" stroke="#000000" stroke-width="3" fill="none" transform="translate(806.078267, 806.078267) rotate(-33.978000) translate(-806.078267, -806.078267) " points="704.992098 704.992098 907.164436 704.992098 907.164436 907.164436 704.992098 907.164436"></polygon>
                    <polygon id="Square-12" stroke="#000000" stroke-width="3" fill="none" transform="translate(805.705255, 805.705255) rotate(-55.012000) translate(-805.705255, -805.705255) " points="688.579584 688.579584 922.830927 688.579584 922.830927 922.830927 688.579584 922.830927"></polygon>
                    <polygon id="Square-11" stroke="#000000" stroke-width="3.4615485" fill="none" transform="translate(805.705255, 805.705255) rotate(-88.990000) translate(-805.705255, -805.705255) " points="669.928999 669.928999 941.481511 669.928999 941.481511 941.481511 669.928999 941.481511"></polygon>
                    <polygon id="Square-10" stroke="#000000" stroke-width="4" fill="none" transform="translate(805.705255, 805.705255) rotate(-144.002000) translate(-805.705255, -805.705255) " points="648.294321 648.294321 963.11619 648.294321 963.11619 963.11619 648.294321 963.11619"></polygon>
                    <polygon id="Square-9" stroke="#000000" stroke-width="6" fill="none" transform="translate(805.705255, 805.705255) rotate(-232.992000) translate(-805.705255, -805.705255) " points="622.929526 622.929526 988.480985 622.929526 988.480985 988.480985 622.929526 988.480985"></polygon>
                    <polygon id="Square-8" stroke="#000000" stroke-width="5.40311721" fill="none" transform="translate(805.705255, 805.705255) rotate(-205.486000) translate(-805.705255, -805.705255) " points="593.834614 593.834614 1017.5759 593.834614 1017.5759 1017.5759 593.834614 1017.5759"></polygon>
                    <polygon id="Square-7" stroke="#000000" stroke-width="6.26761597" fill="none" transform="translate(806.078267, 806.078267) rotate(-250.790000) translate(-806.078267, -806.078267) " points="560.263562 560.263562 1051.89297 560.263562 1051.89297 1051.89297 560.263562 1051.89297"></polygon>
                    <polygon id="Square-6" stroke="#000000" stroke-width="7.27043452" fill="none" transform="translate(805.705255, 805.705255) rotate(-176.362000) translate(-805.705255, -805.705255) " points="520.724322 520.724322 1090.68619 520.724322 1090.68619 1090.68619 520.724322 1090.68619"></polygon>
                    <polygon id="Square-5" stroke="#000000" stroke-width="9.47692308" fill="none" transform="translate(805.705255, 805.705255) rotate(-284.768000) translate(-805.705255, -805.705255) " points="475.216896 475.216896 1136.19361 475.216896 1136.19361 1136.19361 475.216896 1136.19361"></polygon>
                    <polygon id="Square-4" stroke="#000000" stroke-width="9.7830967" fill="none" transform="translate(805.705255, 805.705255) rotate(121.350000) translate(-805.705255, -805.705255) " points="422.249236 422.249236 1189.16128 422.249236 1189.16128 1189.16128 422.249236 1189.16128"></polygon>
                    <polygon id="Square-3" stroke="#000000" stroke-width="11.3483922" fill="none" transform="translate(805.705255, 773.629937) rotate(195.778000) translate(-805.705255, -773.629937) " points="361.075318 329 1250.33519 329 1250.33519 1218.25987 361.075318 1218.25987"></polygon>
                    <polygon id="Square-2" stroke="#000000" stroke-width="13.1641349" fill="none" transform="translate(806.078267, 806.078267) rotate(317.128000) translate(-806.078267, -806.078267) " points="290.203097 290.203097 1321.95344 290.203097 1321.95344 1321.95344 290.203097 1321.95344"></polygon>
                    <polygon id="Square-1" stroke="#000000" stroke-width="15.2703965" fill="none" transform="translate(805.705255, 805.705255) rotate(512.906000) translate(-805.705255, -805.705255) " points="207.394501 207.394501 1404.01601 207.394501 1404.01601 1404.01601 207.394501 1404.01601"></polygon>
                </g>
            </g>
        </g>
    </g>
</svg>