<?xml version="1.0" encoding="UTF-8"?>
<svg width="352px" height="420px" viewBox="0 0 352 420" version="1.1" xmlns="http://www.w3.org/2000/svg" xmlns:xlink="http://www.w3.org/1999/xlink">
    <title>Combined Shape</title>
    <g id="MagMag" stroke="none" stroke-width="1" fill="none" fill-rule="evenodd">
        <g id="Twitter" transform="translate(-266.000000, -610.000000)" fill="#B90F0F">
            <path d="M618,610 L618,1030 L266,1030 L266,610 L618,610 Z M391.138304,978.260106 L324.377088,978.260106 C322.445612,978.260106 320.879841,979.825876 320.879841,981.757353 C320.879841,983.688829 322.445612,985.2546 324.377088,985.2546 L324.377088,985.2546 L391.138304,985.2546 C393.06978,985.2546 394.635551,983.688829 394.635551,981.757353 C394.635551,979.825876 393.06978,978.260106 391.138304,978.260106 L391.138304,978.260106 Z M559.972465,978.260106 L493.211249,978.260106 C491.279773,978.260106 489.714002,979.825876 489.714002,981.757353 C489.714002,983.688829 491.279773,985.2546 493.211249,985.2546 L493.211249,985.2546 L559.972465,985.2546 C561.903941,985.2546 563.469712,983.688829 563.469712,981.757353 C563.469712,979.825876 561.903941,978.260106 559.972465,978.260106 L559.972465,978.260106 Z M391.138304,967.068915 L324.377088,967.068915 C322.445612,967.068915 320.879841,968.634686 320.879841,970.566162 C320.879841,972.497638 322.445612,974.063409 324.377088,974.063409 L324.377088,974.063409 L391.138304,974.063409 C393.06978,974.063409 394.635551,972.497638 394.635551,970.566162 C394.635551,968.634686 393.06978,967.068915 391.138304,967.068915 L391.138304,967.068915 Z M559.972465,967.068915 L493.211249,967.068915 C491.279773,967.068915 489.714002,968.634686 489.714002,970.566162 C489.714002,972.497638 491.279773,974.063409 493.211249,974.063409 L493.211249,974.063409 L559.972465,974.063409 C561.903941,974.063409 563.469712,972.497638 563.469712,970.566162 C563.469712,968.634686 561.903941,967.068915 559.972465,967.068915 L559.972465,967.068915 Z M391.138304,955.877725 L324.377088,955.877725 C322.445612,955.877725 320.879841,957.443496 320.879841,959.374972 C320.879841,961.306448 322.445612,962.872219 324.377088,962.872219 L324.377088,962.872219 L391.138304,962.872219 C393.06978,962.872219 394.635551,961.306448 394.635551,959.374972 C394.635551,957.443496 393.06978,955.877725 391.138304,955.877725 L391.138304,955.877725 Z M559.972465,955.877725 L493.211249,955.877725 C491.279773,955.877725 489.714002,957.443496 489.714002,959.374972 C489.714002,961.306448 491.279773,962.872219 493.211249,962.872219 L493.211249,962.872219 L559.972465,962.872219 C561.903941,962.872219 563.469712,961.306448 563.469712,959.374972 C563.469712,957.443496 561.903941,955.877725 559.972465,955.877725 L559.972465,955.877725 Z M444.27038,955.877725 L439.72962,955.877725 C437.798144,955.877725 436.232373,957.443496 436.232373,959.374972 C436.232373,961.306448 437.798144,962.872219 439.72962,962.872219 L439.72962,962.872219 L444.27038,962.872219 C446.201856,962.872219 447.767627,961.306448 447.767627,959.374972 C447.767627,957.443496 446.201856,955.877725 444.27038,955.877725 L444.27038,955.877725 Z M391.138304,944.686535 L324.377088,944.686535 C322.445612,944.686535 320.879841,946.252306 320.879841,948.183782 C320.879841,950.115258 322.445612,951.681029 324.377088,951.681029 L324.377088,951.681029 L391.138304,951.681029 C393.06978,951.681029 394.635551,950.115258 394.635551,948.183782 C394.635551,946.252306 393.06978,944.686535 391.138304,944.686535 L391.138304,944.686535 Z M559.972465,944.686535 L493.211249,944.686535 C491.279773,944.686535 489.714002,946.252306 489.714002,948.183782 C489.714002,950.115258 491.279773,951.681029 493.211249,951.681029 L493.211249,951.681029 L559.972465,951.681029 C561.903941,951.681029 563.469712,950.115258 563.469712,948.183782 C563.469712,946.252306 561.903941,944.686535 559.972465,944.686535 L559.972465,944.686535 Z M454.057867,944.686535 L430.291686,944.686535 C428.36021,944.686535 426.794439,946.252306 426.794439,948.183782 C426.794439,950.115258 428.36021,951.681029 430.291686,951.681029 L430.291686,951.681029 L454.057867,951.681029 C455.989343,951.681029 457.555114,950.115258 457.555114,948.183782 C457.555114,946.252306 455.989343,944.686535 454.057867,944.686535 L454.057867,944.686535 Z M391.138304,933.495344 L324.377088,933.495344 C322.445612,933.495344 320.879841,935.061115 320.879841,936.992591 C320.879841,938.924068 322.445612,940.489838 324.377088,940.489838 L324.377088,940.489838 L391.138304,940.489838 C393.06978,940.489838 394.635551,938.924068 394.635551,936.992591 C394.635551,935.061115 393.06978,933.495344 391.138304,933.495344 L391.138304,933.495344 Z M559.972465,933.495344 L493.211249,933.495344 C491.279773,933.495344 489.714002,935.061115 489.714002,936.992591 C489.714002,938.924068 491.279773,940.489838 493.211249,940.489838 L493.211249,940.489838 L559.972465,940.489838 C561.903941,940.489838 563.469712,938.924068 563.469712,936.992591 C563.469712,935.061115 561.903941,933.495344 559.972465,933.495344 L559.972465,933.495344 Z M460.349824,933.495344 L423.99973,933.495344 C422.068253,933.495344 420.502483,935.061115 420.502483,936.992591 C420.502483,938.924068 422.068253,940.489838 423.99973,940.489838 L423.99973,940.489838 L460.349824,940.489838 C462.2813,940.489838 463.847071,938.924068 463.847071,936.992591 C463.847071,935.061115 462.2813,933.495344 460.349824,933.495344 L460.349824,933.495344 Z M391.138304,922.304154 L324.377088,922.304154 C322.445612,922.304154 320.879841,923.869925 320.879841,925.801401 C320.879841,927.732877 322.445612,929.298648 324.377088,929.298648 L324.377088,929.298648 L391.138304,929.298648 C393.06978,929.298648 394.635551,927.732877 394.635551,925.801401 C394.635551,923.869925 393.06978,922.304154 391.138304,922.304154 L391.138304,922.304154 Z M559.972465,922.304154 L493.211249,922.304154 C491.279773,922.304154 489.714002,923.869925 489.714002,925.801401 C489.714002,927.732877 491.279773,929.298648 493.211249,929.298648 L493.211249,929.298648 L559.972465,929.298648 C561.903941,929.298648 563.469712,927.732877 563.469712,925.801401 C563.469712,923.869925 561.903941,922.304154 559.972465,922.304154 L559.972465,922.304154 Z M468.389545,922.304154 L415.960008,922.304154 C414.028531,922.304154 412.462761,923.869925 412.462761,925.801401 C412.462761,927.732877 414.028531,929.298648 415.960008,929.298648 L415.960008,929.298648 L468.389545,929.298648 C470.321022,929.298648 471.886792,927.732877 471.886792,925.801401 C471.886792,923.869925 470.321022,922.304154 468.389545,922.304154 L468.389545,922.304154 Z M391.138304,911.112964 L324.377088,911.112964 C322.445612,911.112964 320.879841,912.678735 320.879841,914.610211 C320.879841,916.541687 322.445612,918.107458 324.377088,918.107458 L324.377088,918.107458 L391.138304,918.107458 C393.06978,918.107458 394.635551,916.541687 394.635551,914.610211 C394.635551,912.678735 393.06978,911.112964 391.138304,911.112964 L391.138304,911.112964 Z M559.972465,911.112964 L493.211249,911.112964 C491.279773,911.112964 489.714002,912.678735 489.714002,914.610211 C489.714002,916.541687 491.279773,918.107458 493.211249,918.107458 L493.211249,918.107458 L559.972465,918.107458 C561.903941,918.107458 563.469712,916.541687 563.469712,914.610211 C563.469712,912.678735 561.903941,911.112964 559.972465,911.112964 L559.972465,911.112964 Z M476.429267,911.112964 L405.123861,911.112964 C403.192385,911.112964 401.626614,912.678735 401.626614,914.610211 C401.626614,916.541687 403.192385,918.107458 405.123861,918.107458 L405.123861,918.107458 L476.429267,918.107458 C478.360744,918.107458 479.926514,916.541687 479.926514,914.610211 C479.926514,912.678735 478.360744,911.112964 476.429267,911.112964 L476.429267,911.112964 Z M559.972465,899.921774 L324.377088,899.921774 C322.445612,899.921774 320.879841,901.487544 320.879841,903.419021 C320.879841,905.350497 322.445612,906.916268 324.377088,906.916268 L324.377088,906.916268 L559.972465,906.916268 C561.903941,906.916268 563.469712,905.350497 563.469712,903.419021 C563.469712,901.487544 561.903941,899.921774 559.972465,899.921774 L559.972465,899.921774 Z M559.972465,888.730583 L324.377088,888.730583 C322.445612,888.730583 320.879841,890.296354 320.879841,892.22783 C320.879841,894.159306 322.445612,895.725077 324.377088,895.725077 L324.377088,895.725077 L559.972465,895.725077 C561.903941,895.725077 563.469712,894.159306 563.469712,892.22783 C563.469712,890.296354 561.903941,888.730583 559.972465,888.730583 L559.972465,888.730583 Z M559.972465,877.539393 L324.377088,877.539393 C322.445612,877.539393 320.879841,879.105164 320.879841,881.03664 C320.879841,882.968116 322.445612,884.533887 324.377088,884.533887 L324.377088,884.533887 L559.972465,884.533887 C561.903941,884.533887 563.469712,882.968116 563.469712,881.03664 C563.469712,879.105164 561.903941,877.539393 559.972465,877.539393 L559.972465,877.539393 Z M559.972465,866.348203 L324.377088,866.348203 C322.445612,866.348203 320.879841,867.913973 320.879841,869.84545 C320.879841,871.776926 322.445612,873.342697 324.377088,873.342697 L324.377088,873.342697 L559.972465,873.342697 C561.903941,873.342697 563.469712,871.776926 563.469712,869.84545 C563.469712,867.913973 561.903941,866.348203 559.972465,866.348203 L559.972465,866.348203 Z M559.972465,855.157012 L324.377088,855.157012 C322.445612,855.157012 320.879841,856.722783 320.879841,858.654259 C320.879841,860.585736 322.445612,862.151506 324.377088,862.151506 L324.377088,862.151506 L559.972465,862.151506 C561.903941,862.151506 563.469712,860.585736 563.469712,858.654259 C563.469712,856.722783 561.903941,855.157012 559.972465,855.157012 L559.972465,855.157012 Z M559.972465,843.965822 L324.377088,843.965822 C322.445612,843.965822 320.879841,845.531593 320.879841,847.463069 C320.879841,849.394545 322.445612,850.960316 324.377088,850.960316 L324.377088,850.960316 L559.972465,850.960316 C561.903941,850.960316 563.469712,849.394545 563.469712,847.463069 C563.469712,845.531593 561.903941,843.965822 559.972465,843.965822 L559.972465,843.965822 Z M559.622912,832.774632 L451.264874,832.774632 C449.333397,832.774632 447.767627,834.340403 447.767627,836.271879 C447.767627,838.203355 449.333397,839.769126 451.264874,839.769126 L451.264874,839.769126 L559.622912,839.769126 C561.554388,839.769126 563.120159,838.203355 563.120159,836.271879 C563.120159,834.340403 561.554388,832.774632 559.622912,832.774632 L559.622912,832.774632 Z M432.735126,832.774632 L324.377088,832.774632 C322.445612,832.774632 320.879841,834.340403 320.879841,836.271879 C320.879841,838.203355 322.445612,839.769126 324.377088,839.769126 L324.377088,839.769126 L432.735126,839.769126 C434.666603,839.769126 436.232373,838.203355 436.232373,836.271879 C436.232373,834.340403 434.666603,832.774632 432.735126,832.774632 L432.735126,832.774632 Z M426.093617,821.583442 L324.377088,821.583442 C322.445612,821.583442 320.879841,823.149212 320.879841,825.080688 C320.879841,827.012165 322.445612,828.577935 324.377088,828.577935 L324.377088,828.577935 L426.093617,828.577935 C428.025093,828.577935 429.590864,827.012165 429.590864,825.080688 C429.590864,823.149212 428.025093,821.583442 426.093617,821.583442 L426.093617,821.583442 Z M559.622912,821.583442 L457.906383,821.583442 C455.974907,821.583442 454.409136,823.149212 454.409136,825.080688 C454.409136,827.012165 455.974907,828.577935 457.906383,828.577935 L457.906383,828.577935 L559.622912,828.577935 C561.554388,828.577935 563.120159,827.012165 563.120159,825.080688 C563.120159,823.149212 561.554388,821.583442 559.622912,821.583442 L559.622912,821.583442 Z M417.005236,810.392251 L324.377088,810.392251 C322.445612,810.392251 320.879841,811.958022 320.879841,813.889498 C320.879841,815.820974 322.445612,817.386745 324.377088,817.386745 L324.377088,817.386745 L417.005236,817.386745 C418.936712,817.386745 420.502483,815.820974 420.502483,813.889498 C420.502483,811.958022 418.936712,810.392251 417.005236,810.392251 L417.005236,810.392251 Z M559.622912,810.392251 L466.994764,810.392251 C465.063288,810.392251 463.497517,811.958022 463.497517,813.889498 C463.497517,815.820974 465.063288,817.386745 466.994764,817.386745 L466.994764,817.386745 L559.622912,817.386745 C561.554388,817.386745 563.120159,815.820974 563.120159,813.889498 C563.120159,811.958022 561.554388,810.392251 559.622912,810.392251 L559.622912,810.392251 Z M408.965514,799.201061 L324.377088,799.201061 C322.445612,799.201061 320.879841,800.766832 320.879841,802.698308 C320.879841,804.629784 322.445612,806.195555 324.377088,806.195555 L324.377088,806.195555 L408.965514,806.195555 C410.89699,806.195555 412.462761,804.629784 412.462761,802.698308 C412.462761,800.766832 410.89699,799.201061 408.965514,799.201061 L408.965514,799.201061 Z M559.622912,799.201061 L475.034486,799.201061 C473.10301,799.201061 471.537239,800.766832 471.537239,802.698308 C471.537239,804.629784 473.10301,806.195555 475.034486,806.195555 L475.034486,806.195555 L559.622912,806.195555 C561.554388,806.195555 563.120159,804.629784 563.120159,802.698308 C563.120159,800.766832 561.554388,799.201061 559.622912,799.201061 L559.622912,799.201061 Z M401.275345,788.009871 L324.377088,788.009871 C322.445612,788.009871 320.879841,789.575641 320.879841,791.507118 C320.879841,793.438594 322.445612,795.004365 324.377088,795.004365 L324.377088,795.004365 L401.275345,795.004365 C403.206821,795.004365 404.772592,793.438594 404.772592,791.507118 C404.772592,789.575641 403.206821,788.009871 401.275345,788.009871 L401.275345,788.009871 Z M559.622912,788.009871 L482.724655,788.009871 C480.793179,788.009871 479.227408,789.575641 479.227408,791.507118 C479.227408,793.438594 480.793179,795.004365 482.724655,795.004365 L482.724655,795.004365 L559.622912,795.004365 C561.554388,795.004365 563.120159,793.438594 563.120159,791.507118 C563.120159,789.575641 561.554388,788.009871 559.622912,788.009871 L559.622912,788.009871 Z M395.682495,776.81868 L324.377088,776.81868 C322.445612,776.81868 320.879841,778.384451 320.879841,780.315927 C320.879841,782.247403 322.445612,783.813174 324.377088,783.813174 L324.377088,783.813174 L395.682495,783.813174 C397.613971,783.813174 399.179742,782.247403 399.179742,780.315927 C399.179742,778.384451 397.613971,776.81868 395.682495,776.81868 L395.682495,776.81868 Z M559.622912,776.81868 L488.317505,776.81868 C486.386029,776.81868 484.820258,778.384451 484.820258,780.315927 C484.820258,782.247403 486.386029,783.813174 488.317505,783.813174 L488.317505,783.813174 L559.622912,783.813174 C561.554388,783.813174 563.120159,782.247403 563.120159,780.315927 C563.120159,778.384451 561.554388,776.81868 559.622912,776.81868 L559.622912,776.81868 Z M388.341879,765.62749 L324.377088,765.62749 C322.445612,765.62749 320.879841,767.193261 320.879841,769.124737 C320.879841,771.056213 322.445612,772.621984 324.377088,772.621984 L324.377088,772.621984 L388.341879,772.621984 C390.273355,772.621984 391.839126,771.056213 391.839126,769.124737 C391.839126,767.193261 390.273355,765.62749 388.341879,765.62749 L388.341879,765.62749 Z M559.622912,765.62749 L495.658121,765.62749 C493.726645,765.62749 492.160874,767.193261 492.160874,769.124737 C492.160874,771.056213 493.726645,772.621984 495.658121,772.621984 L495.658121,772.621984 L559.622912,772.621984 C561.554388,772.621984 563.120159,771.056213 563.120159,769.124737 C563.120159,767.193261 561.554388,765.62749 559.622912,765.62749 L559.622912,765.62749 Z M381.001263,754.4363 L324.377088,754.4363 C322.445612,754.4363 320.879841,756.002071 320.879841,757.933547 C320.879841,759.865023 322.445612,761.430794 324.377088,761.430794 L324.377088,761.430794 L381.001263,761.430794 C382.93274,761.430794 384.49851,759.865023 384.49851,757.933547 C384.49851,756.002071 382.93274,754.4363 381.001263,754.4363 L381.001263,754.4363 Z M559.622912,754.4363 L502.998737,754.4363 C501.06726,754.4363 499.50149,756.002071 499.50149,757.933547 C499.50149,759.865023 501.06726,761.430794 502.998737,761.430794 L502.998737,761.430794 L559.622912,761.430794 C561.554388,761.430794 563.120159,759.865023 563.120159,757.933547 C563.120159,756.002071 561.554388,754.4363 559.622912,754.4363 L559.622912,754.4363 Z" id="Combined-Shape"></path>
        </g>
    </g>
</svg>