<?xml version="1.0" encoding="UTF-8"?>
<svg width="120px" height="34px" viewBox="0 0 120 34" version="1.1" xmlns="http://www.w3.org/2000/svg" xmlns:xlink="http://www.w3.org/1999/xlink">
    <!-- Generator: Sketch 63.1 (92452) - https://sketch.com -->
    <title>Play Audio</title>
    <desc>Created with Sketch.</desc>
    <g id="@estudiocrise" stroke="none" stroke-width="1" fill="none" fill-rule="evenodd">
        <g id="•-O-Estúdio" transform="translate(-127.000000, -4136.000000)" fill="#E32828">
            <g id="Gabriel-Rodrigues" transform="translate(0.000000, 3206.000000)">
                <g id="Texto" transform="translate(18.200000, 841.000000)">
                    <path d="M211.8,89 C221.188841,89 228.8,96.6111593 228.8,106 C228.8,115.388841 221.188841,123 211.8,123 L125.8,123 C116.411159,123 108.8,115.388841 108.8,106 C108.8,96.6111593 116.411159,89 125.8,89 L211.8,89 Z M179.27619,95.8764045 C178.890468,95.8764045 178.571692,96.163037 178.521241,96.5349233 L178.514286,96.6383093 L178.514286,115.361691 C178.514286,115.782479 178.855402,116.123596 179.27619,116.123596 C179.661913,116.123596 179.980689,115.836963 180.03114,115.465077 L180.038095,115.361691 L180.038095,96.6383093 C180.038095,96.2175209 179.696979,95.8764045 179.27619,95.8764045 Z M188.419048,95.8764045 C188.033325,95.8764045 187.714549,96.163037 187.664098,96.5349233 L187.657143,96.6383093 L187.657143,115.361691 C187.657143,115.782479 187.998259,116.123596 188.419048,116.123596 C188.80477,116.123596 189.123546,115.836963 189.173997,115.465077 L189.180952,115.361691 L189.180952,96.6383093 C189.180952,96.2175209 188.839836,95.8764045 188.419048,95.8764045 Z M183.847619,96.6404494 C183.461896,96.6404494 183.14312,96.927082 183.09267,97.2989682 L183.085714,97.4023542 L183.085714,114.597646 C183.085714,115.018434 183.426831,115.359551 183.847619,115.359551 C184.233342,115.359551 184.552118,115.072918 184.602569,114.701032 L184.609524,114.597646 L184.609524,97.4023542 C184.609524,96.9815658 184.268407,96.6404494 183.847619,96.6404494 Z M165.561905,97.7865169 C165.176182,97.7865169 164.857406,98.0731494 164.806955,98.4450357 L164.8,98.5484216 L164.8,113.833601 C164.8,114.254389 165.141116,114.595506 165.561905,114.595506 C165.947627,114.595506 166.266404,114.308873 166.316854,113.936987 L166.32381,113.833601 L166.32381,98.5484216 C166.32381,98.1276332 165.982693,97.7865169 165.561905,97.7865169 Z M160.990476,98.1685393 C160.604754,98.1685393 160.285977,98.4551718 160.235527,98.8270581 L160.228571,98.9304441 L160.228571,113.069556 C160.228571,113.490344 160.569688,113.831461 160.990476,113.831461 C161.376199,113.831461 161.694975,113.544828 161.745426,113.172942 L161.752381,113.069556 L161.752381,98.9304441 C161.752381,98.5096557 161.411265,98.1685393 160.990476,98.1685393 Z M124.038095,98.5505618 L124.038095,113.831461 L140.8,106.191011 L124.038095,98.5505618 Z M174.704762,99.3146067 C174.319039,99.3146067 174.000263,99.6012393 173.949812,99.9731255 L173.942857,100.076512 L173.942857,112.305511 C173.942857,112.726299 174.283974,113.067416 174.704762,113.067416 C175.090485,113.067416 175.409261,112.780783 175.459711,112.408897 L175.466667,112.305511 L175.466667,100.076512 C175.466667,99.6557231 175.12555,99.3146067 174.704762,99.3146067 Z M156.419048,99.6966292 C156.033325,99.6966292 155.714549,99.9832617 155.664098,100.355148 L155.657143,100.458534 L155.657143,111.541466 C155.657143,111.962254 155.998259,112.303371 156.419048,112.303371 C156.80477,112.303371 157.123546,112.016738 157.173997,111.644852 L157.180952,111.541466 L157.180952,100.458534 C157.180952,100.037746 156.839836,99.6966292 156.419048,99.6966292 Z M206.704762,99.6966292 C206.319039,99.6966292 206.000263,99.9832617 205.949812,100.355148 L205.942857,100.458534 L205.942857,111.541466 C205.942857,111.962254 206.283974,112.303371 206.704762,112.303371 C207.090485,112.303371 207.409261,112.016738 207.459711,111.644852 L207.466667,111.541466 L207.466667,100.458534 C207.466667,100.037746 207.12555,99.6966292 206.704762,99.6966292 Z M192.990476,100.460674 C192.604754,100.460674 192.285977,100.747307 192.235527,101.119193 L192.228571,101.222579 L192.228571,111.159444 C192.228571,111.580232 192.569688,111.921348 192.990476,111.921348 C193.376199,111.921348 193.694975,111.634716 193.745426,111.26283 L193.752381,111.159444 L193.752381,101.222579 C193.752381,100.801791 193.411265,100.460674 192.990476,100.460674 Z M170.133333,101.224719 C169.747611,101.224719 169.428835,101.511352 169.378384,101.883238 L169.371429,101.986624 L169.371429,110.013376 C169.371429,110.434165 169.712545,110.775281 170.133333,110.775281 C170.519056,110.775281 170.837832,110.488648 170.888283,110.116762 L170.895238,110.013376 L170.895238,101.986624 C170.895238,101.565835 170.554122,101.224719 170.133333,101.224719 Z M211.27619,101.988764 C210.890468,101.988764 210.571692,102.275397 210.521241,102.647283 L210.514286,102.750669 L210.514286,109.249331 C210.514286,109.67012 210.855402,110.011236 211.27619,110.011236 C211.661913,110.011236 211.980689,109.724603 212.03114,109.352717 L212.038095,109.249331 L212.038095,102.750669 C212.038095,102.32988 211.696979,101.988764 211.27619,101.988764 Z M197.561905,104.280899 C197.176182,104.280899 196.857406,104.567531 196.806955,104.939418 L196.8,105.042804 L196.8,106.957196 C196.8,107.377985 197.141116,107.719101 197.561905,107.719101 C197.947627,107.719101 198.266404,107.432469 198.316854,107.060582 L198.32381,106.957196 L198.32381,105.042804 C198.32381,104.622015 197.982693,104.280899 197.561905,104.280899 Z M202.133333,104.280899 C201.747611,104.280899 201.428835,104.567531 201.378384,104.939418 L201.371429,105.042804 L201.371429,106.957196 C201.371429,107.377985 201.712545,107.719101 202.133333,107.719101 C202.519056,107.719101 202.837832,107.432469 202.888283,107.060582 L202.895238,106.957196 L202.895238,105.042804 C202.895238,104.622015 202.554122,104.280899 202.133333,104.280899 Z" id="Play-Audio"></path>
                </g>
            </g>
        </g>
    </g>
</svg>