<?xml version="1.0" encoding="UTF-8"?>
<svg width="188px" height="198px" viewBox="0 0 188 198" version="1.1" xmlns="http://www.w3.org/2000/svg" xmlns:xlink="http://www.w3.org/1999/xlink">
    <!-- Generator: Sketch 64 (93537) - https://sketch.com -->
    <title>Group</title>
    <desc>Created with Sketch.</desc>
    <defs>
        <rect id="path-1" x="0" y="0" width="98" height="86"></rect>
        <path d="M0.916845347,2.11668943e-15 L89.0831547,3.70416494e-17 C89.4019618,-2.1522265e-17 89.5175689,0.0331944385 89.63412,0.0955266549 C89.7506711,0.157858871 89.8421411,0.249328865 89.9044733,0.365879976 C89.9668056,0.482431088 90,0.598038246 90,0.916845347 L90,159.287955 C90,159.606762 89.9668056,159.722369 89.9044733,159.83892 C89.8421411,159.955471 89.7506711,160.046941 89.63412,160.109273 C89.5175689,160.171606 89.4019618,160.2048 89.0831547,160.2048 L0.916845347,160.2048 C0.598038246,160.2048 0.482431088,160.171606 0.365879976,160.109273 C0.249328865,160.046941 0.157858871,159.955471 0.0955266549,159.83892 C0.0331944385,159.722369 -1.2370316e-15,159.606762 2.12903665e-15,159.287955 L2.46944329e-17,0.916845347 C-1.43481767e-17,0.598038246 0.0331944385,0.482431088 0.0955266549,0.365879976 C0.157858871,0.249328865 0.249328865,0.157858871 0.365879976,0.0955266549 C0.482431088,0.0331944385 0.598038246,-1.22985752e-15 0.916845347,2.11668943e-15 Z" id="path-3"></path>
        <filter x="-42.2%" y="-11.9%" width="184.4%" height="147.4%" filterUnits="objectBoundingBox" id="filter-5">
            <feOffset dx="0" dy="19" in="SourceAlpha" result="shadowOffsetOuter1"></feOffset>
            <feMorphology radius="7.8672" operator="erode" in="SourceAlpha" result="shadowInner"></feMorphology>
            <feOffset dx="0" dy="19" in="shadowInner" result="shadowInner"></feOffset>
            <feComposite in="shadowOffsetOuter1" in2="shadowInner" operator="out" result="shadowOffsetOuter1"></feComposite>
            <feGaussianBlur stdDeviation="9.5" in="shadowOffsetOuter1" result="shadowBlurOuter1"></feGaussianBlur>
            <feColorMatrix values="0 0 0 0 0.282352941   0 0 0 0 0.223529412   0 0 0 0 0  0 0 0 0.11 0" type="matrix" in="shadowBlurOuter1" result="shadowMatrixOuter1"></feColorMatrix>
            <feOffset dx="0" dy="9" in="SourceAlpha" result="shadowOffsetOuter2"></feOffset>
            <feMorphology radius="7.8672" operator="erode" in="SourceAlpha" result="shadowInner"></feMorphology>
            <feOffset dx="0" dy="9" in="shadowInner" result="shadowInner"></feOffset>
            <feComposite in="shadowOffsetOuter2" in2="shadowInner" operator="out" result="shadowOffsetOuter2"></feComposite>
            <feGaussianBlur stdDeviation="4.5" in="shadowOffsetOuter2" result="shadowBlurOuter2"></feGaussianBlur>
            <feColorMatrix values="0 0 0 0 0.282352941   0 0 0 0 0.282352941   0 0 0 0 0.282352941  0 0 0 0.11 0" type="matrix" in="shadowBlurOuter2" result="shadowMatrixOuter2"></feColorMatrix>
            <feOffset dx="0" dy="4" in="SourceAlpha" result="shadowOffsetOuter3"></feOffset>
            <feMorphology radius="7.8672" operator="erode" in="SourceAlpha" result="shadowInner"></feMorphology>
            <feOffset dx="0" dy="4" in="shadowInner" result="shadowInner"></feOffset>
            <feComposite in="shadowOffsetOuter3" in2="shadowInner" operator="out" result="shadowOffsetOuter3"></feComposite>
            <feGaussianBlur stdDeviation="2" in="shadowOffsetOuter3" result="shadowBlurOuter3"></feGaussianBlur>
            <feColorMatrix values="0 0 0 0 0.282352941   0 0 0 0 0.282352941   0 0 0 0 0.282352941  0 0 0 0.11 0" type="matrix" in="shadowBlurOuter3" result="shadowMatrixOuter3"></feColorMatrix>
            <feOffset dx="0" dy="2" in="SourceAlpha" result="shadowOffsetOuter4"></feOffset>
            <feMorphology radius="7.8672" operator="erode" in="SourceAlpha" result="shadowInner"></feMorphology>
            <feOffset dx="0" dy="2" in="shadowInner" result="shadowInner"></feOffset>
            <feComposite in="shadowOffsetOuter4" in2="shadowInner" operator="out" result="shadowOffsetOuter4"></feComposite>
            <feGaussianBlur stdDeviation="1" in="shadowOffsetOuter4" result="shadowBlurOuter4"></feGaussianBlur>
            <feColorMatrix values="0 0 0 0 0.282352941   0 0 0 0 0.282352941   0 0 0 0 0.282352941  0 0 0 0.11 0" type="matrix" in="shadowBlurOuter4" result="shadowMatrixOuter4"></feColorMatrix>
            <feOffset dx="0" dy="2" in="SourceAlpha" result="shadowOffsetOuter5"></feOffset>
            <feMorphology radius="7.8672" operator="erode" in="SourceAlpha" result="shadowInner"></feMorphology>
            <feOffset dx="0" dy="2" in="shadowInner" result="shadowInner"></feOffset>
            <feComposite in="shadowOffsetOuter5" in2="shadowInner" operator="out" result="shadowOffsetOuter5"></feComposite>
            <feGaussianBlur stdDeviation="1" in="shadowOffsetOuter5" result="shadowBlurOuter5"></feGaussianBlur>
            <feColorMatrix values="0 0 0 0 0.282352941   0 0 0 0 0.282352941   0 0 0 0 0.282352941  0 0 0 0.11 0" type="matrix" in="shadowBlurOuter5" result="shadowMatrixOuter5"></feColorMatrix>
            <feOffset dx="0" dy="1" in="SourceAlpha" result="shadowOffsetOuter6"></feOffset>
            <feMorphology radius="7.8672" operator="erode" in="SourceAlpha" result="shadowInner"></feMorphology>
            <feOffset dx="0" dy="1" in="shadowInner" result="shadowInner"></feOffset>
            <feComposite in="shadowOffsetOuter6" in2="shadowInner" operator="out" result="shadowOffsetOuter6"></feComposite>
            <feGaussianBlur stdDeviation="0.5" in="shadowOffsetOuter6" result="shadowBlurOuter6"></feGaussianBlur>
            <feColorMatrix values="0 0 0 0 0.282352941   0 0 0 0 0.282352941   0 0 0 0 0.282352941  0 0 0 0.11 0" type="matrix" in="shadowBlurOuter6" result="shadowMatrixOuter6"></feColorMatrix>
            <feMerge>
                <feMergeNode in="shadowMatrixOuter1"></feMergeNode>
                <feMergeNode in="shadowMatrixOuter2"></feMergeNode>
                <feMergeNode in="shadowMatrixOuter3"></feMergeNode>
                <feMergeNode in="shadowMatrixOuter4"></feMergeNode>
                <feMergeNode in="shadowMatrixOuter5"></feMergeNode>
                <feMergeNode in="shadowMatrixOuter6"></feMergeNode>
            </feMerge>
        </filter>
    </defs>
    <g id="O-Estúdio" stroke="none" stroke-width="1" fill="none" fill-rule="evenodd">
        <g id="iPad-Pro" transform="translate(-482.000000, -618.000000)">
            <g id="Group" transform="translate(469.000000, 618.000000)">
                <g id="Group-9" transform="translate(0.000000, 26.000000)">
                    <mask id="mask-2" fill="white">
                        <use xlink:href="#path-1"></use>
                    </mask>
                    <g id="Rectangle"></g>
                    <path d="M117.037482,69.5775197 C115.986547,69.1066288 114.123829,66.4765061 114.998492,65.6915172 C116.638549,64.2214563 118.130166,62.5848672 119.526946,60.887303 C122.482862,57.2974647 126.289217,52.6602913 126.313442,47.8263583 C126.332512,44.411759 124.954287,38.3859956 121.70716,36.4306968 C118.791961,34.6767692 113.61769,38.7426224 111.344701,40.3377076 C109.645887,41.5305628 108.073865,42.8904587 106.648221,44.39485 C105.708616,45.3868464 104.731385,46.6130073 104.731385,46.6130073 C104.331937,47.1146419 103.948982,48.0466881 103.880432,48.6835949 C103.880432,48.6835949 103.733023,50.0598875 103.672719,51.3326763 C103.572728,53.4888338 103.66138,55.6455037 103.938159,57.7862894 C104.115978,59.1733423 104.365955,60.5516844 104.659742,61.9202911 C104.986517,63.4400542 104.469038,64.1230765 103.447482,65.2749402 C101.008528,68.0234261 94.996189,70.9225562 94.996189,70.9225562 C94.4163449,71.2007866 94.2411031,70.9973658 94.6044721,70.4695991 C94.6044721,70.4695991 99.3354848,63.6209296 100.066346,62.5105699 C101.102334,60.9375177 100.560116,58.7086001 100.286945,56.9172677 C99.1679743,49.6110296 89.5946188,36.7775881 89.5946188,36.7775881 C89.2101177,36.2631437 88.7287183,36.3384657 88.5230669,36.9451413 C88.5230669,36.9451413 81.9643855,56.3280137 75.8901961,64.4627943 C75.4732237,65.0223295 73.0657109,68.4610113 72.7992403,66.1019454 C72.4796818,63.2842862 73.3064106,60.1653387 74.0960295,57.4865384 C75.1680969,53.8562209 77.9683574,48.0231179 77.9683574,48.0231179 C78.2461672,47.4456489 77.961657,47.0946585 77.3349099,47.2427406 C77.3349099,47.2427406 68.9078419,49.231345 68.6197238,49.7919049 C68.1754344,50.6532407 67.6878499,51.4951054 67.2038733,52.3344082 C64.3464014,57.2831177 58.1577894,66.0071524 58.1577894,66.0071524 C57.7872046,66.5303075 57.5779453,66.442688 57.6928833,65.8124424 L64.9102676,38.7851512 C65.1020028,38.1738641 64.7927526,37.9171543 64.2216705,38.2133185 C64.2216705,38.2133185 57.4088885,40.710731 53.6241815,41.9497018 C48.4957823,43.6288197 44.5873751,42.7679963 44.5873751,42.7679963 C43.9508351,42.8658638 43.3761452,43.4663905 43.3106872,44.1038097 C43.3106872,44.1038097 42.5318921,51.658047 41.2335567,55.6557516 C39.958415,59.5868449 37.8575753,65.9190205 33.6187859,67.6545018 C29.4253531,69.3710246 24.5922878,64.3700508 22.6836987,61.1865416 C22.1672508,60.3252059 21.8136748,59.5602004 21.8136748,59.5602004 C21.5446271,58.9781198 21.5848296,58.046586 21.9028419,57.4901252 C21.9028419,57.4901252 22.6275182,56.219386 23.3573487,55.1264477 C25.1164669,52.4917134 28.8073681,48.8470488 28.8073681,48.8470488 C29.2640276,48.3961414 29.4423619,48.5139922 29.2032084,49.1078578 L26.227706,56.9469866 C26.0333938,57.5572489 26.4008861,58.0839908 27.044642,58.1157593 C27.044642,58.1157593 30.5273147,58.2920231 32.8564841,58.3611964 C34.8315621,58.4206342 34.5877698,58.2469324 34.8959892,56.4392033 C35.1547285,54.9209774 35.4696483,53.4114622 35.8113698,51.9091205 C37.055071,46.4428922 40.1140709,36.7750262 40.1140709,36.7750262 C40.3068369,36.1637391 39.9816088,35.8721864 39.3909409,36.1253095 C39.3909409,36.1253095 26.6843655,38.3275826 17.9660868,48.5478103 C15.3302443,51.6380636 11.7176865,58.00252 13.4551572,62.205695 C15.2111829,66.4539607 18.4407859,70.2154513 21.7013139,73.4230431 C25.1850174,76.848915 29.2655738,79.697318 33.8450539,81.4748158 C35.9866116,82.304383 40.1522118,75.6268533 41.2515963,73.8508928 C43.8188884,69.7035688 46.0578598,65.7852854 47.3943361,61.3018305 C48.1324133,58.8274757 48.6442224,54.8579528 48.6442224,54.8579528 C48.7277199,54.2225832 49.3183878,53.6538249 49.9605974,53.5943871 L53.1273195,52.5342422 C53.7252032,52.2949538 54.0452772,52.5957296 53.8385949,53.2029175 C53.8385949,53.2029175 47.8025464,70.9773824 51.1496644,78.8462302 C52.4201674,81.8350293 56.1208614,82.6635718 58.6654752,80.3275637 C62.6078999,76.7095436 66.3637436,67.5766178 66.3637436,67.5766178 C66.6075358,66.9842894 66.9533806,67.0042728 67.0554332,67.6370804 C67.3100492,69.2065458 67.3038642,74.3904445 69.0609208,78.7575859 C70.4437846,82.1952429 71.674085,82.3612588 72.2662991,81.6802861 C77.6338518,75.5233496 89.0575543,56.350559 89.0575543,56.350559 C89.3564962,55.7838503 89.7971777,55.8053709 90.0342695,56.4007737 C90.0342695,56.4007737 92.1361401,61.6553829 90.3125947,65.1606761 C88.5534765,68.5435069 83.6374291,74.3597009 83.6374291,74.3597009 C83.2240646,74.8500627 83.2384963,75.6391508 83.6693849,76.1146532 C83.6693849,76.1146532 89.9760274,83.0355705 94.9565019,81.1509822 C100.26272,79.1439316 107.188894,71.53743 107.188894,71.53743 C107.621329,71.06244 108.19138,71.1521091 108.45785,71.7352144 C108.45785,71.7352144 110.990094,77.292649 113.529038,79.8366894 C114.626876,80.9357764 115.716468,82.1885818 117.280759,81.5634601 C118.886283,80.9229665 120.357798,79.9463419 121.733962,78.9164283 C124.527006,76.8258573 127.196866,74.3187093 129.174521,71.4359758 C131.042908,68.7172088 129.155451,60.2437351 129.155451,60.2437351 C129.016804,59.618101 128.567876,59.5115229 128.159665,60.0075211 C128.159665,60.0075211 119.394999,70.6351027 117.037482,69.5775197 L117.037482,69.5775197 Z M116.968687,47.7350815 C116.968687,47.7350815 115.021454,56.2854183 111.572204,59 C111.152509,56.6364075 110.661447,53.7877846 111.325019,51.4366034 C112.008914,49.0169122 116.233276,47.0882088 116.233276,47.0882088 C116.775382,46.8409773 117.106695,47.1313999 116.968687,47.7350815 Z M82.2304832,34.0145617 C82.8547598,33.9168237 83.1618555,34.3216646 82.9142628,34.9116932 L82.9142628,34.9116932 L79.9844991,42.2590153 C79.8120415,42.8773364 79.1696114,43.5059458 78.5564285,43.6556392 L78.5564285,43.6556392 L70.8260883,45.9596829 C70.2169395,46.1268662 69.8669815,45.7585484 70.0475074,45.1427993 L70.0475074,45.1427993 L72.5294862,37.7265463 C72.7468232,37.1236574 73.4018598,36.4343476 73.9873083,36.1956613 L73.9873083,36.1956613 Z" id="Crise-Lettering" fill="#131415" mask="url(#mask-2)"></path>
                </g>
                <g id="Mandalinta" transform="translate(92.000000, 0.000000)">
                    <g id="Mandala">
                        <mask id="mask-4" fill="white">
                            <use xlink:href="#path-3"></use>
                        </mask>
                        <g id="Máscara">
                            <use fill="black" fill-opacity="1" filter="url(#filter-5)" xlink:href="#path-3"></use>
                            <path stroke="#000000" stroke-width="7.8672" d="M86.0664,3.9336 L3.9336,3.9336 L3.9336,156.2712 L86.0664,156.2712 L86.0664,3.9336 Z" stroke-linejoin="square"></path>
                        </g>
                        <g mask="url(#mask-4)">
                            <g transform="translate(-530.170422, -502.705560)">
                                <path d="M600.954239,551.87847 L600.954239,602.384639 L553.309103,602.384639 L553.309644,595.804042 C554.258211,596.088326 555.236958,596.155799 556.152948,595.822117 C559.799899,594.494112 564.517418,589.603619 564.87491,589.229391 L564.896533,589.206679 C565.205633,588.879821 565.613099,588.941526 565.80357,589.342782 C565.80357,589.342782 567.613591,593.167056 569.428401,594.917704 C570.213125,595.674026 570.991953,596.536127 572.110092,596.105958 C573.257703,595.665211 574.309527,594.99316 575.293194,594.284439 C577.289633,592.84584 579.198021,591.120579 580.611628,589.136865 C581.947131,587.265982 580.597997,581.435074 580.597997,581.435074 C580.498893,581.004552 580.178004,580.931211 579.88622,581.272526 C579.88622,581.272526 573.621328,588.585755 571.9362,587.857993 C571.185002,587.533956 569.853552,585.724072 570.478752,585.183892 C571.651047,584.172289 572.717239,583.046092 573.715643,581.877936 C575.828501,579.407637 578.549243,576.216628 578.566558,572.890221 C578.58019,570.54051 577.595049,566.393961 575.274037,565.048448 C573.190283,563.841507 569.491769,566.639369 567.86706,567.737006 C566.652765,568.557853 565.529101,569.493648 564.510066,570.528874 C563.838446,571.211504 563.139932,572.05527 563.139932,572.05527 C562.85441,572.400463 562.580678,573.041838 562.531679,573.480117 C562.531679,573.480117 562.426313,574.427194 562.383208,575.303047 C562.311736,576.786778 562.375103,578.270862 562.572942,579.744015 C562.700045,580.698497 562.878726,581.646985 563.088722,582.588773 C563.322297,583.634578 562.952409,584.104591 562.222211,584.89723 C560.478873,586.788564 556.181316,588.783562 556.181316,588.783562 C555.766849,588.975023 555.641588,588.835041 555.901321,588.471866 C555.901321,588.471866 559.282999,583.759045 559.805411,582.994966 C560.545924,581.912491 560.158352,580.378691 559.963092,579.146009 C559.353621,575.314895 555.235232,569.275303 553.309423,566.617494 L553.309103,551.87847 L600.954239,551.87847 Z M571.153166,572.09388 C571.570054,571.91891 571.824838,572.124447 571.718708,572.551684 C571.718708,572.551684 570.221257,578.602909 567.568732,580.524067 C567.245981,578.85131 566.868347,576.835289 567.378643,575.171316 C567.904569,573.458858 571.153166,572.09388 571.153166,572.09388 Z" id="Square-20" stroke="none" fill="#181818" fill-rule="evenodd"></path>
                                <polygon id="Square-18" stroke="#000000" stroke-width="2.1456" fill="none" transform="translate(576.507177, 576.507177) rotate(-3.236000) translate(-576.507177, -576.507177) " points="545.038377 545.038377 607.975977 545.038377 607.975977 607.975977 545.038377 607.975977"></polygon>
                                <polygon id="Square-17" stroke="#000000" stroke-width="2.1456" fill="none" transform="translate(576.773955, 576.773955) rotate(-5.000000) translate(-576.773955, -576.773955) " points="538.153155 538.153155 615.394755 538.153155 615.394755 615.394755 538.153155 615.394755"></polygon>
                                <polygon id="Square-16" stroke="#000000" stroke-width="2.1456" fill="none" transform="translate(576.773955, 576.773955) rotate(-8.090000) translate(-576.773955, -576.773955) " points="530.354589 530.354589 623.19332 530.354589 623.19332 623.19332 530.354589 623.19332"></polygon>
                                <polygon id="Square-15" stroke="#000000" stroke-width="2.1456" fill="none" transform="translate(576.773955, 576.773955) rotate(-12.944000) translate(-576.773955, -576.773955) " points="522.884806 522.884806 630.663103 522.884806 630.663103 630.663103 522.884806 630.663103"></polygon>
                                <polygon id="Square-14" stroke="#000000" stroke-width="2.1342237" fill="none" transform="translate(576.773955, 576.773955) rotate(-21.034000) translate(-576.773955, -576.773955) " points="514.347911 514.347911 639.199998 514.347911 639.199998 639.199998 514.347911 639.199998"></polygon>
                                <polygon id="Square-13" stroke="#000000" stroke-width="2.1456" fill="none" transform="translate(576.507177, 576.507177) rotate(-33.978000) translate(-576.507177, -576.507177) " points="504.210349 504.210349 648.804004 504.210349 648.804004 648.804004 504.210349 648.804004"></polygon>
                                <polygon id="Square-12" stroke="#000000" stroke-width="2.1456" fill="none" transform="translate(576.240399, 576.240399) rotate(-55.012000) translate(-576.240399, -576.240399) " points="492.472118 492.472118 660.008679 492.472118 660.008679 660.008679 492.472118 660.008679"></polygon>
                                <polygon id="Square-11" stroke="#000000" stroke-width="2.47569949" fill="none" transform="translate(576.240399, 576.240399) rotate(-88.990000) translate(-576.240399, -576.240399) " points="479.13322 479.13322 673.347577 479.13322 673.347577 673.347577 479.13322 673.347577"></polygon>
                                <polygon id="Square-10" stroke="#000000" stroke-width="2.8608" fill="none" transform="translate(576.240399, 576.240399) rotate(-144.002000) translate(-576.240399, -576.240399) " points="463.660099 463.660099 688.820699 463.660099 688.820699 688.820699 463.660099 688.820699"></polygon>
                                <polygon id="Square-9" stroke="#000000" stroke-width="4.2912" fill="none" transform="translate(576.240399, 576.240399) rotate(-232.992000) translate(-576.240399, -576.240399) " points="445.519197 445.519197 706.9616 445.519197 706.9616 706.9616 445.519197 706.9616"></polygon>
                                <polygon id="Square-8" stroke="#000000" stroke-width="3.86430943" fill="none" transform="translate(576.240399, 576.240399) rotate(-205.486000) translate(-576.240399, -576.240399) " points="424.710516 424.710516 727.770281 424.710516 727.770281 727.770281 424.710516 727.770281"></polygon>
                                <polygon id="Square-7" stroke="#000000" stroke-width="4.48259894" fill="none" transform="translate(576.507177, 576.507177) rotate(-250.790000) translate(-576.507177, -576.507177) " points="400.700499 400.700499 752.313854 400.700499 752.313854 752.313854 400.700499 752.313854"></polygon>
                                <polygon id="Square-6" stroke="#000000" stroke-width="5.19981477" fill="none" transform="translate(576.240399, 576.240399) rotate(-176.362000) translate(-576.240399, -576.240399) " points="372.422035 372.422035 780.058762 372.422035 780.058762 780.058762 372.422035 780.058762"></polygon>
                                <polygon id="Square-5" stroke="#000000" stroke-width="6.77789538" fill="none" transform="translate(576.240399, 576.240399) rotate(-284.768000) translate(-576.240399, -576.240399) " points="339.875124 339.875124 812.605673 339.875124 812.605673 812.605673 339.875124 812.605673"></polygon>
                                <polygon id="Square-4" stroke="#000000" stroke-width="6.99687076" fill="none" transform="translate(576.240399, 576.240399) rotate(121.350000) translate(-576.240399, -576.240399) " points="301.992653 301.992653 850.488144 301.992653 850.488144 850.488144 301.992653 850.488144"></polygon>
                                <polygon id="Square-3" stroke="#000000" stroke-width="8.11637008" fill="none" transform="translate(576.240399, 553.300131) rotate(195.778000) translate(-576.240399, -553.300131) " points="258.241068 235.3008 894.23973 235.3008 894.23973 871.299462 258.241068 871.299462"></polygon>
                                <polygon id="Square-2" stroke="#000000" stroke-width="9.41498929" fill="none" transform="translate(576.507177, 576.507177) rotate(317.128000) translate(-576.507177, -576.507177) " points="207.553255 207.553255 945.461099 207.553255 945.461099 945.461099 207.553255 945.461099"></polygon>
                                <polygon id="Square-1" stroke="#000000" stroke-width="10.9213876" fill="none" transform="translate(576.240399, 576.240399) rotate(512.906000) translate(-576.240399, -576.240399) " points="148.328547 148.328547 1004.15225 148.328547 1004.15225 1004.15225 148.328547 1004.15225"></polygon>
                            </g>
                        </g>
                    </g>
                </g>
            </g>
        </g>
    </g>
</svg>