<?xml version="1.0" encoding="UTF-8"?>
<svg width="2048px" height="1365px" viewBox="0 0 2048 1365" version="1.1" xmlns="http://www.w3.org/2000/svg" xmlns:xlink="http://www.w3.org/1999/xlink">
    <title>selection</title>
    <g id="Page-1" stroke="none" stroke-width="1" fill="none" fill-rule="evenodd">
        <g id="selection">
            <polygon id="Path" points="2048 0 0 0 0 1364.9984 2048 1364.9984"></polygon>
            <polygon id="Path" stroke="#FFFFFF" points="488.4896 878.3968 502.56192 925.18976 522.5216 972.53312 529.78304 989.31296 520.38272 1018.7856 516.19968 1041.15008 518.216 1070.43904 520.8352 1111.62944 545.10368 1123.13952 564.59648 1129.45312 577.0128 1115.72992 615.89728 1100.2064 645.5056 1092.27616 649.4128 1080.44096 652.53856 1053.94976 682.46528 1023.17344 720.74304 1029.47904 749.87328 1026.83424 736.3616 1043.34496 717.22592 1057.03296 718.08256 1072.68192 727.45888 1089.81728 768.75776 1103.47168 786.36928 1104.4912 826.07328 1041.26752 848.54432 1035.13248 881.37504 1036.18816 892.72384 1020.4528 898.488 1003.18656 895.74048 986.85952 891.3152 972.13248 857.35104 937.22304 828.06112 914.42016 780.34912 899.26528 762.46272 884.89152 763.28992 865.5584 763.51744 846.5936 793.13344 763.41024 809.89792 769.35328 828.32896 726.9952 798.66272 693.968 769.95552 666.88352 750.13568 668.07616 761.52256 653.21856 765.53728 636.26016 773.06112 615.27008 778.40672 597.51968 777.16224 572.25088 772.34528 560.10912 767.59872 553.7824 758.69728 536.0512 740.53344 530.176 718.53632 529.37856 708.65152 527.272 697.40192 534.58432 676.2576 547.5536 664.90784 570.33248 658.59552 591.6672 657.90304 608.79648 657.71264 624.03008 662.78016 634.60704 667.41952 632.352 663.34432 643.73728 653.44 649.54208 646.03872 655.47008 611.89056 673.92896 566.58592 700.5488 547.20768 720.2992 509.45408 809.23968 490.13312 860.20384 488.4896 878.3968"></polygon>
        </g>
    </g>
</svg>